<?xml version="1.0" encoding="utf-8"?>
<!-- Generator: Adobe Illustrator 24.0.0, SVG Export Plug-In . SVG Version: 6.00 Build 0)  -->
<svg version="1.1" id="Capa_1" xmlns="http://www.w3.org/2000/svg" xmlns:xlink="http://www.w3.org/1999/xlink" x="0px" y="0px"
	 viewBox="0 0 100 30" style="enable-background:new 0 0 100 30;" xml:space="preserve">
<style type="text/css">
	.st0{fill-rule:evenodd;clip-rule:evenodd;fill:#FFFFFF;}
	.st1{fill:#FFFFFF;}
</style>
<g id="logo_5_">
	<g id="logo_7_">
		<path class="st0" d="M5.1,22.9c0.1-0.3-0.4-1.7,0.9-3.7l1-1.3c0.4-0.5,1.5-1.6,2-2.1L9.9,15c0.2-0.2,0.4-0.4,0.7-0.5
			c1.2-0.5,3.8-0.2,3.8-0.9c-0.3-0.7-2.4,0.1-3,0.2c0.2-0.3,1.5-1.5,1.9-1.8c0.8-0.8,2.1-2.3,2.7-3.5c0.6-1.1,1-2.6,0.6-4
			c-0.2-0.9-1.1-3-1.7-3.3c0.2,1.8,0.3,2-0.5,3.6c-0.5,1-1.3,1.9-1.9,2.6c-0.2,0.2-0.4,0.4-0.5,0.5l-5.1,4.8c-1.3,1.3-1.9,2-2.9,3.8
			C3,18,3.2,20,4.2,21.6c0.1,0.2,0.6,1,0.9,1.2C5.1,22.9,5,22.8,5.1,22.9L5.1,22.9z M9.5,25.2c0.4,0.1,0.7,0.5,2.3,0.8
			c1.7,0.3,3.4-0.2,4.9-1c2.3-1.3,1.3-1.6,1.7-2.8c0.7-2.1,2.5-2.9,3.1-4.5c0.5-1.3,0.2-1.8,0.2-2.6c0.2,0,0.2,0.1,0.3,0.3
			c0.1,0.1,0.1,0.1,0.2,0.3c0.1,0.1,0.2,0.2,0.2,0.3c0.1,0.1,0.1,0.2,0.2,0.3c1,1.3,1.5,3,1.1,4.8c-0.3,1.7-1.7,3.2-3.2,4
			c-0.2,0.1-0.5,0.1-0.7,0.4c0.1,0.2,0.3,0.2,0.5,0.3c1.3,0.5,2.3,1.9,2.3,3.3c-0.3-0.1-0.5-0.2-0.7-0.3c-0.6-0.1-1.8-0.1-2.6-0.2
			c-1.6-0.3-2.1-1.6-1.9-1.8c0.4-0.2,1.4,0,1.8,0.1c0.3,0.1,0.6,0.1,0.8,0.2c0.2,0.1,0.6,0.2,0.8,0.3c-0.2-0.6-1.6-1-2.1-1.1
			c-0.2,0-0.3,0-0.5,0c-0.2,0-0.3,0-0.4-0.1c0.6-0.6,2.2-1,3.7-3.9c0.2-0.5,0.6-1.4,0.6-2c-0.1,0,0,0-0.1,0.1l-0.2,0.3
			c-0.2,0.5-0.4,0.8-0.7,1.2C20.5,23,19.3,24.1,18,25c-1.3,0.8-3,1.7-4.8,1.7c-0.7,0-1.7-0.1-2.3-0.4c-0.4-0.2-1-0.6-1.3-0.9
			C9.5,25.3,9.5,25.3,9.5,25.2L9.5,25.2z M2.5,20.4c-0.6-0.3-1.3-2.1-1.4-2.9c-0.3-1.7,0.2-3.6,1.2-5l1.5-1.7
			c0.1-0.1,0.2-0.2,0.3-0.3l1.4-1.2C6,8.8,9.2,6.2,10.1,5.6l1.2-1c0.4-0.3,0.8-0.6,1.1-1c1.5-1.4,1.5-2.2,1.8-2.4
			c0.5,0.6-0.8,2.5-1,2.8c-1,1.3-0.7,0.9-1.9,2.1c-0.8,0.9-1.7,1.6-2.6,2.4L8.3,9.1C7.8,9.5,7.8,9.5,7.2,10
			c-0.4,0.4-2.2,2.1-2.5,2.5l-1.3,1.7c-0.5,0.7-1,1.8-1.2,2.7C1.7,19,2.3,19.5,2.5,20.4L2.5,20.4z M8.8,16.6c0.8,0,1.8,0.3,2.7,0
			c1.3-0.4,0.8-1.3,1.5-1.3l-0.1,0.3c0.2,0.1,0.2,0.1,0.3,0.2c0.2,0.4,0.2,0.5,0,0.8c-0.1,0.2-0.1,0.2,0,0.4l-0.5,0
			c0,0.2,0.1,0.2,0.1,0.5l-0.5-0.1l0.1,0.4c-0.2-0.1-0.3-0.2-0.5-0.2l0.1,0.4c-0.3-0.1-0.2-0.2-0.4-0.3l0.1,0.4
			c-0.1,0-0.3-0.2-0.4-0.3l-0.1,0.1c0,0.1,0,0-0.1,0.1c-0.2-0.1-0.1-0.1-0.3-0.2c0,0.2,0.1,0.3,0.2,0.4c-0.3,0-0.2-0.2-0.6-0.3
			l-0.1,0.3c-0.2-0.2-0.1-0.3-0.4-0.4c-0.9-0.4-0.5-0.3-0.8-0.7C9.1,16.8,8.9,16.8,8.8,16.6L8.8,16.6z M13.9,21.7
			c0.2-0.2,0.6-0.3,0.8-0.5c0.3-0.2,0.4-0.3,0.6-0.6c0.8-0.9,0.7-0.5,1.2-0.8c0.2-0.1,0.2-0.2,0.4-0.2c0,0.3-0.2,1-0.3,1.3
			C15.9,22.8,14.1,22.3,13.9,21.7L13.9,21.7z M16.4,13c0-0.4,0.1-0.4,0.2-0.7c0.3-0.8-0.1-1.3,0.5-0.9c0.2,0.1,0.5,0.1,0.7,0.1
			c-0.1,0.2-0.1,0.1-0.2,0.2c0.1,0.1,0.1,0,0.1,0.2c-0.3,0.2-0.2,0.1-0.2,0.4C17.5,13,17.1,13,16.4,13z"/>
	</g>
	<g>
		<g>
			<path class="st1" d="M31,24.4l-1.4-3.6h0c0,0.3,0,0.6,0,1v2.6h-0.4v-4.1h0.7l1.3,3.4h0l1.3-3.4h0.7v4.1h-0.5v-2.6
				c0-0.3,0-0.6,0-1h0l-1.4,3.6H31z"/>
			<path class="st1" d="M35.5,24.5c-0.5,0-0.8-0.1-1.1-0.4c-0.3-0.3-0.4-0.7-0.4-1.1c0-0.5,0.1-0.9,0.4-1.2c0.2-0.3,0.6-0.4,1-0.4
				c0.4,0,0.7,0.1,0.9,0.4s0.3,0.6,0.3,1V23h-2.1c0,0.4,0.1,0.6,0.3,0.8c0.2,0.2,0.4,0.3,0.7,0.3c0.3,0,0.7-0.1,1-0.2v0.4
				c-0.2,0.1-0.3,0.1-0.5,0.2C35.9,24.5,35.7,24.5,35.5,24.5z M35.4,21.7c-0.2,0-0.4,0.1-0.6,0.2c-0.1,0.2-0.2,0.4-0.3,0.7h1.6
				c0-0.3-0.1-0.5-0.2-0.7C35.8,21.8,35.7,21.7,35.4,21.7z"/>
			<path class="st1" d="M39.5,24L39.5,24c-0.2,0.3-0.6,0.5-1,0.5c-0.4,0-0.7-0.1-0.9-0.4c-0.2-0.3-0.3-0.7-0.3-1.2
				c0-0.5,0.1-0.9,0.3-1.2c0.2-0.3,0.5-0.4,0.9-0.4c0.4,0,0.7,0.2,1,0.5h0l0-0.2l0-0.2v-1.2H40v4.3h-0.4L39.5,24z M38.6,24.1
				c0.3,0,0.5-0.1,0.7-0.3s0.2-0.4,0.2-0.8v-0.1c0-0.4-0.1-0.7-0.2-0.9c-0.1-0.2-0.4-0.3-0.7-0.3c-0.3,0-0.5,0.1-0.6,0.3
				c-0.1,0.2-0.2,0.5-0.2,0.9c0,0.4,0.1,0.7,0.2,0.9C38.1,24,38.3,24.1,38.6,24.1z"/>
			<path class="st1" d="M40.9,20.5c0-0.1,0-0.2,0.1-0.2c0.1,0,0.1-0.1,0.2-0.1c0.1,0,0.1,0,0.2,0.1c0.1,0,0.1,0.1,0.1,0.2
				c0,0.1,0,0.2-0.1,0.2c-0.1,0.1-0.1,0.1-0.2,0.1c-0.1,0-0.1,0-0.2-0.1C40.9,20.7,40.9,20.6,40.9,20.5z M41.4,24.4h-0.5v-3.1h0.5
				V24.4z"/>
			<path class="st1" d="M43.6,24.5c-0.4,0-0.8-0.1-1-0.4c-0.2-0.3-0.4-0.7-0.4-1.2c0-0.5,0.1-0.9,0.4-1.2c0.2-0.3,0.6-0.4,1.1-0.4
				c0.1,0,0.3,0,0.4,0s0.3,0.1,0.3,0.1l-0.1,0.4c-0.1,0-0.2-0.1-0.3-0.1c-0.1,0-0.2,0-0.3,0c-0.6,0-0.9,0.4-0.9,1.2
				c0,0.4,0.1,0.7,0.2,0.9c0.2,0.2,0.4,0.3,0.7,0.3c0.3,0,0.5-0.1,0.8-0.2v0.4C44.2,24.4,43.9,24.5,43.6,24.5z"/>
			<path class="st1" d="M45.1,20.5c0-0.1,0-0.2,0.1-0.2c0.1,0,0.1-0.1,0.2-0.1c0.1,0,0.1,0,0.2,0.1c0.1,0,0.1,0.1,0.1,0.2
				c0,0.1,0,0.2-0.1,0.2c-0.1,0.1-0.1,0.1-0.2,0.1c-0.1,0-0.1,0-0.2-0.1C45.1,20.7,45.1,20.6,45.1,20.5z M45.6,24.4h-0.5v-3.1h0.5
				V24.4z"/>
			<path class="st1" d="M48.6,24.4v-2c0-0.2-0.1-0.4-0.2-0.6c-0.1-0.1-0.3-0.2-0.5-0.2c-0.3,0-0.6,0.1-0.7,0.3
				c-0.1,0.2-0.2,0.5-0.2,0.9v1.6h-0.5v-3.1h0.4l0.1,0.4h0c0.1-0.2,0.2-0.3,0.4-0.3c0.2-0.1,0.4-0.1,0.6-0.1c0.4,0,0.6,0.1,0.8,0.3
				c0.2,0.2,0.3,0.5,0.3,0.9v2H48.6z"/>
			<path class="st1" d="M51.9,24.4L51.8,24h0c-0.2,0.2-0.3,0.3-0.5,0.4s-0.3,0.1-0.6,0.1c-0.3,0-0.5-0.1-0.7-0.2
				c-0.2-0.2-0.3-0.4-0.3-0.7c0-0.6,0.5-0.9,1.5-1l0.5,0v-0.2c0-0.2-0.1-0.4-0.2-0.5c-0.1-0.1-0.3-0.2-0.5-0.2
				c-0.3,0-0.5,0.1-0.9,0.2l-0.1-0.4c0.2-0.1,0.3-0.1,0.5-0.2c0.2,0,0.4-0.1,0.5-0.1c0.4,0,0.6,0.1,0.8,0.2c0.2,0.2,0.3,0.4,0.3,0.8
				v2.1H51.9z M50.9,24.1c0.3,0,0.5-0.1,0.7-0.2c0.2-0.2,0.2-0.4,0.2-0.7v-0.3l-0.5,0c-0.4,0-0.6,0.1-0.8,0.2s-0.2,0.3-0.2,0.5
				c0,0.2,0.1,0.3,0.2,0.4C50.6,24.1,50.7,24.1,50.9,24.1z"/>
			<path class="st1" d="M57,24.4h-2.3v-4.1H57v0.4h-1.8v1.3h1.7v0.4h-1.7V24H57V24.4z"/>
			<path class="st1" d="M59.8,23.6c0,0.3-0.1,0.5-0.3,0.7c-0.2,0.2-0.5,0.2-0.9,0.2c-0.4,0-0.7-0.1-0.9-0.2v-0.4
				c0.1,0.1,0.3,0.1,0.5,0.2c0.2,0,0.3,0.1,0.5,0.1c0.2,0,0.4,0,0.6-0.1c0.1-0.1,0.2-0.2,0.2-0.4c0-0.1-0.1-0.2-0.2-0.3
				c-0.1-0.1-0.3-0.2-0.6-0.3c-0.3-0.1-0.5-0.2-0.6-0.3c-0.1-0.1-0.2-0.2-0.3-0.3s-0.1-0.2-0.1-0.4c0-0.2,0.1-0.4,0.3-0.6
				c0.2-0.1,0.5-0.2,0.8-0.2c0.3,0,0.6,0.1,1,0.2l-0.2,0.4c-0.3-0.1-0.6-0.2-0.8-0.2c-0.2,0-0.4,0-0.5,0.1c-0.1,0.1-0.2,0.2-0.2,0.3
				c0,0.1,0,0.2,0.1,0.2s0.1,0.1,0.2,0.2s0.3,0.1,0.5,0.2c0.4,0.1,0.6,0.3,0.7,0.4S59.8,23.4,59.8,23.6z"/>
			<path class="st1" d="M61.6,24.1c0.1,0,0.2,0,0.2,0c0.1,0,0.1,0,0.2,0v0.4c0,0-0.1,0-0.2,0.1s-0.2,0-0.3,0c-0.6,0-0.9-0.3-0.9-0.9
				v-1.8h-0.4v-0.2l0.4-0.2l0.2-0.7h0.3v0.7H62v0.4h-0.9v1.8c0,0.2,0,0.3,0.1,0.4C61.3,24.1,61.4,24.1,61.6,24.1z"/>
			<path class="st1" d="M63.9,24.5c-0.5,0-0.8-0.1-1.1-0.4c-0.3-0.3-0.4-0.7-0.4-1.1c0-0.5,0.1-0.9,0.4-1.2c0.2-0.3,0.6-0.4,1-0.4
				c0.4,0,0.7,0.1,0.9,0.4s0.3,0.6,0.3,1V23h-2.1c0,0.4,0.1,0.6,0.3,0.8c0.2,0.2,0.4,0.3,0.7,0.3c0.3,0,0.7-0.1,1-0.2v0.4
				c-0.2,0.1-0.3,0.1-0.5,0.2S64.1,24.5,63.9,24.5z M63.8,21.7c-0.2,0-0.4,0.1-0.6,0.2c-0.1,0.2-0.2,0.4-0.3,0.7h1.6
				c0-0.3-0.1-0.5-0.2-0.7C64.2,21.8,64,21.7,63.8,21.7z M63.4,20.9c0.1-0.1,0.2-0.3,0.3-0.4c0.1-0.2,0.2-0.3,0.2-0.4h0.6v0.1
				c-0.1,0.1-0.2,0.3-0.4,0.4c-0.2,0.2-0.3,0.3-0.4,0.4L63.4,20.9L63.4,20.9z"/>
			<path class="st1" d="M66.8,24.1c0.1,0,0.2,0,0.2,0c0.1,0,0.1,0,0.2,0v0.4c-0.1,0-0.1,0-0.2,0.1s-0.2,0-0.3,0
				c-0.6,0-0.9-0.3-0.9-0.9v-1.8h-0.4v-0.2l0.4-0.2l0.2-0.7h0.3v0.7h0.9v0.4h-0.9v1.8c0,0.2,0,0.3,0.1,0.4
				C66.5,24.1,66.6,24.1,66.8,24.1z"/>
			<path class="st1" d="M67.8,20.5c0-0.1,0-0.2,0.1-0.2c0.1,0,0.1-0.1,0.2-0.1c0.1,0,0.1,0,0.2,0.1c0.1,0,0.1,0.1,0.1,0.2
				c0,0.1,0,0.2-0.1,0.2c-0.1,0.1-0.1,0.1-0.2,0.1c-0.1,0-0.1,0-0.2-0.1C67.8,20.7,67.8,20.6,67.8,20.5z M68.3,24.4h-0.5v-3.1h0.5
				V24.4z"/>
			<path class="st1" d="M70.5,24.5c-0.4,0-0.8-0.1-1-0.4c-0.2-0.3-0.4-0.7-0.4-1.2c0-0.5,0.1-0.9,0.4-1.2c0.2-0.3,0.6-0.4,1.1-0.4
				c0.1,0,0.3,0,0.4,0c0.1,0,0.3,0.1,0.3,0.1l-0.1,0.4c-0.1,0-0.2-0.1-0.3-0.1c-0.1,0-0.2,0-0.3,0c-0.6,0-0.9,0.4-0.9,1.2
				c0,0.4,0.1,0.7,0.2,0.9c0.2,0.2,0.4,0.3,0.7,0.3c0.3,0,0.5-0.1,0.8-0.2v0.4C71.1,24.4,70.8,24.5,70.5,24.5z"/>
			<path class="st1" d="M73.9,24.4L73.8,24h0c-0.2,0.2-0.3,0.3-0.5,0.4s-0.3,0.1-0.6,0.1c-0.3,0-0.5-0.1-0.7-0.2
				c-0.2-0.2-0.3-0.4-0.3-0.7c0-0.6,0.5-0.9,1.5-1l0.5,0v-0.2c0-0.2-0.1-0.4-0.2-0.5c-0.1-0.1-0.3-0.2-0.5-0.2
				c-0.3,0-0.5,0.1-0.9,0.2l-0.1-0.4c0.2-0.1,0.3-0.1,0.5-0.2c0.2,0,0.4-0.1,0.5-0.1c0.4,0,0.6,0.1,0.8,0.2c0.2,0.2,0.3,0.4,0.3,0.8
				v2.1H73.9z M72.8,24.1c0.3,0,0.5-0.1,0.7-0.2c0.2-0.2,0.2-0.4,0.2-0.7v-0.3l-0.5,0c-0.4,0-0.6,0.1-0.8,0.2s-0.2,0.3-0.2,0.5
				c0,0.2,0.1,0.3,0.2,0.4C72.5,24.1,72.6,24.1,72.8,24.1z"/>
			<path class="st1" d="M76.5,23.4c0-0.2,0.1-0.5,0.2-0.6c0.1-0.2,0.4-0.4,0.7-0.6c-0.2-0.2-0.3-0.3-0.3-0.4s-0.1-0.2-0.1-0.3
				c0-0.1,0-0.2,0-0.3c0-0.3,0.1-0.5,0.3-0.7c0.2-0.2,0.4-0.2,0.8-0.2c0.3,0,0.5,0.1,0.7,0.2s0.3,0.4,0.3,0.6c0,0.2-0.1,0.4-0.2,0.6
				s-0.3,0.3-0.6,0.5l1.1,1.1c0.1-0.1,0.2-0.3,0.3-0.4c0.1-0.2,0.1-0.3,0.2-0.5H80c-0.1,0.5-0.3,0.9-0.6,1.2l0.8,0.8h-0.6l-0.5-0.5
				c-0.2,0.2-0.4,0.3-0.7,0.4c-0.2,0.1-0.5,0.1-0.8,0.1c-0.4,0-0.7-0.1-0.9-0.3C76.6,24,76.5,23.7,76.5,23.4z M77.7,24.1
				c0.4,0,0.8-0.1,1.1-0.4l-1.2-1.2c-0.2,0.1-0.4,0.2-0.4,0.3C77.1,22.9,77,22.9,77,23s-0.1,0.2-0.1,0.3c0,0.2,0.1,0.4,0.2,0.5
				C77.3,24,77.5,24.1,77.7,24.1z M77.3,21.2c0,0.1,0,0.3,0.1,0.4c0.1,0.1,0.2,0.3,0.3,0.4c0.2-0.1,0.4-0.3,0.5-0.4
				c0.1-0.1,0.1-0.3,0.1-0.4c0-0.1,0-0.3-0.1-0.3s-0.2-0.1-0.4-0.1c-0.2,0-0.3,0-0.4,0.1C77.4,20.9,77.3,21,77.3,21.2z"/>
			<path class="st1" d="M84.7,23.3c0,0.4-0.1,0.6-0.4,0.8c-0.3,0.2-0.6,0.3-1.1,0.3c-0.5,0-0.9-0.1-1.1-0.2v-0.5
				c0.2,0.1,0.3,0.1,0.5,0.2c0.2,0,0.4,0.1,0.6,0.1c0.3,0,0.6-0.1,0.7-0.2c0.2-0.1,0.2-0.3,0.2-0.5c0-0.1,0-0.3-0.1-0.3
				s-0.2-0.2-0.3-0.2s-0.3-0.2-0.6-0.3c-0.4-0.1-0.6-0.3-0.8-0.5c-0.2-0.2-0.2-0.4-0.2-0.7c0-0.3,0.1-0.6,0.4-0.7
				c0.2-0.2,0.5-0.3,0.9-0.3c0.4,0,0.8,0.1,1.1,0.2l-0.1,0.4c-0.3-0.1-0.7-0.2-1-0.2c-0.3,0-0.4,0.1-0.6,0.2
				c-0.1,0.1-0.2,0.3-0.2,0.4c0,0.1,0,0.3,0.1,0.3s0.1,0.2,0.3,0.2c0.1,0.1,0.3,0.2,0.6,0.2c0.4,0.2,0.7,0.3,0.9,0.5
				C84.6,22.8,84.7,23.1,84.7,23.3z"/>
			<path class="st1" d="M86.8,24.5c-0.2,0-0.4,0-0.5-0.1S86,24.2,85.9,24h0c0,0.2,0,0.3,0,0.5v1.3h-0.5v-4.4h0.4l0.1,0.4h0
				c0.1-0.2,0.3-0.3,0.4-0.4c0.2-0.1,0.3-0.1,0.5-0.1c0.4,0,0.7,0.1,0.9,0.4c0.2,0.3,0.3,0.7,0.3,1.2c0,0.5-0.1,0.9-0.3,1.2
				C87.5,24.3,87.2,24.5,86.8,24.5z M86.8,21.7c-0.3,0-0.5,0.1-0.7,0.3c-0.1,0.2-0.2,0.4-0.2,0.8v0.1c0,0.4,0.1,0.7,0.2,0.9
				c0.1,0.2,0.4,0.3,0.7,0.3c0.3,0,0.5-0.1,0.6-0.3c0.1-0.2,0.2-0.5,0.2-0.9c0-0.4-0.1-0.7-0.2-0.9S87,21.7,86.8,21.7z"/>
			<path class="st1" d="M90.8,24.4L90.7,24h0c-0.2,0.2-0.3,0.3-0.5,0.4s-0.3,0.1-0.6,0.1c-0.3,0-0.5-0.1-0.7-0.2
				c-0.2-0.2-0.3-0.4-0.3-0.7c0-0.6,0.5-0.9,1.5-1l0.5,0v-0.2c0-0.2-0.1-0.4-0.2-0.5c-0.1-0.1-0.3-0.2-0.5-0.2
				c-0.3,0-0.5,0.1-0.9,0.2L89,21.6c0.2-0.1,0.3-0.1,0.5-0.2c0.2,0,0.4-0.1,0.5-0.1c0.4,0,0.6,0.1,0.8,0.2c0.2,0.2,0.3,0.4,0.3,0.8
				v2.1H90.8z M89.7,24.1c0.3,0,0.5-0.1,0.7-0.2c0.2-0.2,0.2-0.4,0.2-0.7v-0.3l-0.5,0c-0.4,0-0.6,0.1-0.8,0.2s-0.2,0.3-0.2,0.5
				c0,0.2,0.1,0.3,0.2,0.4C89.4,24.1,89.6,24.1,89.7,24.1z"/>
		</g>
		<g id="logo_6_">
			<g>
				<path class="st1" d="M25.8,17.5v-10h5.3v1.1H27v2.9h4.1v1.1H27v4.9H25.8z"/>
				<path class="st1" d="M32.9,17.5v-10h1.2v10H32.9z"/>
				<path class="st1" d="M40.2,12c0.7,0.3,1.1,0.6,1.5,1.1c0.3,0.5,0.5,1,0.5,1.6c0,0.9-0.3,1.7-0.9,2.2s-1.4,0.8-2.3,0.8
					c-0.8,0-1.4-0.2-2-0.6c-0.5-0.4-0.9-1-1.1-1.7l1.1-0.5c0.1,0.6,0.4,1.1,0.7,1.4c0.3,0.3,0.8,0.5,1.3,0.5c0.6,0,1.1-0.2,1.4-0.5
					c0.4-0.3,0.6-0.8,0.6-1.3c0-0.4-0.1-0.8-0.4-1.2c-0.3-0.3-0.6-0.6-1.2-0.8l-1.2-0.5c-0.7-0.3-1.2-0.6-1.5-1.1
					c-0.3-0.4-0.5-1-0.5-1.6C36.2,9,36.5,8.4,37,8c0.5-0.5,1.2-0.7,2-0.7c0.6,0,1.1,0.1,1.6,0.4c0.4,0.3,0.8,0.6,1,1.1l-1,0.6
					c-0.2-0.4-0.5-0.7-0.8-0.9c-0.3-0.2-0.6-0.3-0.9-0.3c-0.4,0-0.8,0.1-1.1,0.4c-0.3,0.3-0.4,0.6-0.4,1c0,0.4,0.1,0.7,0.3,0.9
					c0.2,0.3,0.6,0.5,1,0.7L40.2,12z"/>
				<path class="st1" d="M43.7,17.5v-10h1.2v10H43.7z"/>
				<path class="st1" d="M57.6,12.5c0,0.7-0.1,1.4-0.4,2c-0.3,0.6-0.6,1.2-1.2,1.7c-0.5,0.5-1.1,0.9-1.7,1.1c-0.7,0.3-1.3,0.4-2,0.4
					s-1.4-0.1-2-0.4c-0.7-0.3-1.2-0.6-1.7-1.1c-0.5-0.5-0.9-1.1-1.2-1.7s-0.4-1.3-0.4-2c0-0.7,0.1-1.4,0.4-2
					c0.3-0.6,0.7-1.2,1.2-1.7C49,8.3,49.5,8,50.2,7.7s1.3-0.4,2-0.4c0.7,0,1.4,0.1,2.1,0.4s1.2,0.6,1.7,1.1c0.5,0.5,0.9,1.1,1.2,1.7
					C57.4,11.1,57.6,11.8,57.6,12.5z M52.2,16.7c0.5,0,1.1-0.1,1.6-0.3c0.5-0.2,0.9-0.5,1.3-0.9c0.4-0.4,0.7-0.8,0.9-1.3
					s0.3-1,0.3-1.6c0-0.6-0.1-1.1-0.3-1.6s-0.5-1-0.9-1.3c-0.4-0.4-0.8-0.7-1.3-0.9c-0.5-0.2-1-0.3-1.6-0.3c-0.6,0-1.1,0.1-1.6,0.3
					c-0.5,0.2-0.9,0.5-1.3,0.9c-0.4,0.4-0.7,0.8-0.9,1.3c-0.2,0.5-0.3,1-0.3,1.6c0,0.6,0.1,1.1,0.3,1.6s0.5,0.9,0.9,1.3
					c0.4,0.4,0.8,0.7,1.3,0.9C51.2,16.6,51.7,16.7,52.2,16.7z"/>
				<path class="st1" d="M63.2,12c0.7,0.3,1.1,0.6,1.5,1.1c0.3,0.5,0.5,1,0.5,1.6c0,0.9-0.3,1.7-0.9,2.2s-1.4,0.8-2.3,0.8
					c-0.8,0-1.4-0.2-2-0.6c-0.5-0.4-0.9-1-1.1-1.7l1.1-0.5c0.1,0.6,0.4,1.1,0.7,1.4c0.3,0.3,0.8,0.5,1.3,0.5c0.6,0,1.1-0.2,1.4-0.5
					c0.4-0.3,0.6-0.8,0.6-1.3c0-0.4-0.1-0.8-0.4-1.2c-0.3-0.3-0.6-0.6-1.2-0.8l-1.2-0.5c-0.7-0.3-1.2-0.6-1.5-1.1s-0.5-1-0.5-1.6
					C59.2,9,59.4,8.4,60,8c0.5-0.5,1.2-0.7,2-0.7c0.6,0,1.1,0.1,1.6,0.4c0.4,0.3,0.8,0.6,1,1.1l-1,0.6c-0.2-0.4-0.5-0.7-0.8-0.9
					s-0.6-0.3-0.9-0.3c-0.4,0-0.8,0.1-1.1,0.4c-0.3,0.3-0.4,0.6-0.4,1c0,0.4,0.1,0.7,0.3,0.9c0.2,0.3,0.6,0.5,1,0.7L63.2,12z"/>
				<path class="st1" d="M68.5,17.5V8.7h-2.8V7.5h6.8v1.1h-2.8v8.9H68.5z"/>
				<path class="st1" d="M73.8,17.5v-10h5.3v1.1H75v2.9h4.1v1.1H75v3.8h4.1v1.1H73.8z"/>
				<path class="st1" d="M82.8,17.5V8.7H80V7.5h6.8v1.1H84v8.9H82.8z"/>
				<path class="st1" d="M88.2,17.5v-10h1.2v10H88.2z"/>
				<path class="st1" d="M91.8,17.5v-10H93V12l4.2-4.4h1.4L94.3,12l4.7,5.5h-1.5L93,12.1v5.4H91.8z"/>
			</g>
		</g>
	</g>
</g>
</svg>
