<?xml version="1.0" encoding="utf-8"?>
<!-- Generator: Adobe Illustrator 24.0.0, SVG Export Plug-In . SVG Version: 6.00 Build 0)  -->
<svg version="1.1" id="Capa_1" xmlns="http://www.w3.org/2000/svg" xmlns:xlink="http://www.w3.org/1999/xlink" x="0px" y="0px"
	 viewBox="0 0 190 55" style="enable-background:new 0 0 190 55;" xml:space="preserve">
<style type="text/css">
	.st0{fill-rule:evenodd;clip-rule:evenodd;fill:url(#SVGID_1_);}
	.st1{fill:#969596;}
	.st2{fill:#6A2A85;}
</style>
<g id="logo_1_">
	<g id="logo_3_">
		<linearGradient id="SVGID_1_" gradientUnits="userSpaceOnUse" x1="17.8913" y1="20.028" x2="37.0446" y2="31.0862">
			<stop  offset="0" style="stop-color:#D52084"/>
			<stop  offset="0.1708" style="stop-color:#D02084"/>
			<stop  offset="0.3748" style="stop-color:#C12284"/>
			<stop  offset="0.5957" style="stop-color:#A92484"/>
			<stop  offset="0.8271" style="stop-color:#882785"/>
			<stop  offset="1" style="stop-color:#6A2A85"/>
		</linearGradient>
		<path class="st0" d="M12.6,42c0.3-0.6-0.7-3.2,1.6-6.7l1.8-2.5c0.7-0.9,2.7-2.9,3.7-3.8l1.6-1.5c0.3-0.3,0.7-0.8,1.2-1
			c2.1-0.9,7-0.4,7-1.6c-0.5-1.3-4.5,0.2-5.5,0.4c0.3-0.6,2.7-2.7,3.4-3.4c1.5-1.5,3.9-4.3,4.9-6.4c1-2,1.7-4.8,1.2-7.4
			c-0.3-1.6-2.1-5.5-3.1-6c0.4,3.3,0.5,3.7-0.9,6.6c-0.9,1.8-2.3,3.5-3.4,4.7c-0.3,0.3-0.7,0.7-1,1l-9.5,8.7
			c-2.3,2.4-3.6,3.7-5.3,6.9c-1.6,3-1.2,6.6,0.6,9.6c0.3,0.4,1.2,1.8,1.6,2.2C12.6,42,12.4,41.9,12.6,42L12.6,42z M20.6,46.2
			c0.8,0.2,1.3,1,4.2,1.5c3.1,0.6,6.3-0.4,9-1.8c4.2-2.4,2.5-3,3.2-5.2c1.2-3.9,4.5-5.3,5.8-8.2c1-2.3,0.4-3.3,0.4-4.8
			c0.3,0.1,0.4,0.2,0.6,0.5c0.2,0.3,0.2,0.2,0.4,0.5c0.1,0.2,0.3,0.4,0.4,0.5c0.2,0.2,0.3,0.3,0.4,0.5c1.8,2.4,2.7,5.6,2.1,8.7
			c-0.6,3.1-3.1,5.9-5.8,7.3c-0.4,0.2-1,0.3-1.2,0.7c0.1,0.3,0.5,0.3,1,0.5c2.4,0.8,4.3,3.5,4.2,6.1c-0.5-0.1-0.9-0.4-1.3-0.5
			c-1-0.2-3.2-0.1-4.8-0.4c-3-0.5-3.8-2.9-3.4-3.3c0.7-0.4,2.5,0,3.3,0.1c0.6,0.1,1,0.3,1.5,0.4c0.4,0.2,1,0.4,1.4,0.5
			c-0.4-1-3-1.8-3.9-2c-0.3-0.1-0.6-0.1-0.9-0.1c-0.4,0-0.5,0-0.8-0.2c1-1.2,4-1.8,6.7-7.1c0.4-0.9,1-2.5,1-3.6
			c-0.2,0.1-0.1,0-0.2,0.2l-0.3,0.6c-0.4,1-0.7,1.4-1.3,2.3c-1.6,2.3-3.8,4.4-6.1,5.9c-2.4,1.6-5.6,3.1-8.8,3.2
			c-1.3,0-3.1-0.2-4.1-0.7c-0.8-0.4-1.9-1-2.5-1.7C20.6,46.4,20.6,46.5,20.6,46.2L20.6,46.2z M7.7,37.5c-1-0.5-2.3-3.9-2.6-5.3
			c-0.6-3.2,0.5-6.6,2.2-9.1l2.7-3.2c0.1-0.2,0.3-0.4,0.5-0.5l2.5-2.2c1.2-1.1,7-5.7,8.7-6.9l2.2-1.8c0.7-0.6,1.4-1.2,2.1-1.8
			c2.8-2.6,2.8-4,3.3-4.4c0.9,1.1-1.4,4.5-1.9,5.2C25.6,9.9,26.2,9,24,11.3c-1.5,1.6-3.2,3-4.7,4.4l-0.9,0.9
			c-0.8,0.8-0.9,0.7-1.9,1.7c-0.8,0.8-4,3.8-4.6,4.6l-2.4,3.1c-0.9,1.3-1.9,3.2-2.3,5C6.4,34.9,7.4,35.8,7.7,37.5L7.7,37.5z
			 M19.4,30.4c1.5-0.1,3.3,0.5,5,0c2.5-0.7,1.5-2.5,2.7-2.5l-0.2,0.6c0.3,0.1,0.4,0.1,0.6,0.4c0.3,0.7,0.4,1,0.1,1.4
			c-0.2,0.4-0.1,0.3,0,0.7l-0.9-0.1c0.1,0.4,0.3,0.3,0.3,0.9l-0.8-0.3l0.2,0.7c-0.4-0.1-0.5-0.3-0.9-0.4l0.1,0.8
			c-0.6-0.1-0.4-0.3-0.8-0.5l0.1,0.8c-0.2,0-0.6-0.3-0.8-0.5L24,32.7c-0.1,0.1,0,0-0.1,0.2c-0.3-0.2-0.2-0.2-0.5-0.3
			c0.1,0.4,0.2,0.5,0.3,0.7c-0.5-0.1-0.3-0.4-1-0.6l-0.2,0.5c-0.3-0.3-0.3-0.5-0.8-0.7c-1.6-0.8-0.8-0.5-1.5-1.3
			C19.8,30.8,19.6,30.8,19.4,30.4L19.4,30.4z M28.7,39.8c0.4-0.3,1.1-0.6,1.5-0.9c0.6-0.5,0.6-0.6,1.1-1.2c1.5-1.7,1.2-0.9,2.1-1.4
			c0.3-0.2,0.3-0.3,0.8-0.4c-0.1,0.6-0.4,1.8-0.6,2.3C32.4,41.8,29,40.9,28.7,39.8L28.7,39.8z M33.3,23.8c0-0.7,0.2-0.7,0.4-1.3
			c0.5-1.4-0.3-2.3,0.9-1.7C35.1,21,35.5,21,36,21c-0.2,0.3-0.2,0.3-0.3,0.4c0.2,0.2,0.1,0.1,0.2,0.3c-0.5,0.3-0.3,0.2-0.4,0.8
			C35.3,23.9,34.6,23.8,33.3,23.8z"/>
	</g>
	<g>
		<g>
			<path class="st1" d="M60,44.8l-2.5-6.6h0c0,0.5,0.1,1.1,0.1,1.9v4.8h-0.8v-7.5H58l2.4,6.2h0l2.4-6.2h1.3v7.5h-0.9V40
				c0-0.6,0-1.2,0.1-1.8h0l-2.6,6.6H60z"/>
			<path class="st1" d="M68.4,44.9c-0.8,0-1.5-0.3-2-0.8c-0.5-0.5-0.7-1.2-0.7-2.1c0-0.9,0.2-1.6,0.7-2.2c0.4-0.5,1-0.8,1.8-0.8
				c0.7,0,1.3,0.2,1.7,0.7s0.6,1.1,0.6,1.8v0.5h-3.9c0,0.7,0.2,1.2,0.5,1.5s0.8,0.5,1.3,0.5c0.6,0,1.2-0.1,1.8-0.4v0.8
				c-0.3,0.1-0.6,0.2-0.9,0.3C69.1,44.9,68.8,44.9,68.4,44.9z M68.2,39.8c-0.5,0-0.8,0.1-1.1,0.4c-0.3,0.3-0.4,0.7-0.5,1.2h2.9
				c0-0.5-0.1-0.9-0.4-1.2C69,40,68.7,39.8,68.2,39.8z"/>
			<path class="st1" d="M75.8,44.1L75.8,44.1c-0.4,0.6-1,0.9-1.8,0.9c-0.7,0-1.3-0.3-1.7-0.8c-0.4-0.5-0.6-1.2-0.6-2.1
				c0-0.9,0.2-1.6,0.6-2.2c0.4-0.5,1-0.8,1.7-0.8c0.8,0,1.3,0.3,1.8,0.8h0.1l0-0.4l0-0.4v-2.3h0.8v8h-0.7L75.8,44.1z M74.1,44.2
				c0.6,0,1-0.2,1.3-0.5c0.3-0.3,0.4-0.8,0.4-1.5V42c0-0.8-0.1-1.4-0.4-1.7c-0.3-0.3-0.7-0.5-1.3-0.5c-0.5,0-0.9,0.2-1.1,0.6
				c-0.3,0.4-0.4,0.9-0.4,1.6c0,0.7,0.1,1.3,0.4,1.6S73.6,44.2,74.1,44.2z"/>
			<path class="st1" d="M78.3,37.7c0-0.2,0-0.3,0.1-0.4c0.1-0.1,0.2-0.1,0.4-0.1c0.1,0,0.3,0,0.4,0.1c0.1,0.1,0.1,0.2,0.1,0.4
				c0,0.2,0,0.3-0.1,0.4c-0.1,0.1-0.2,0.1-0.4,0.1c-0.1,0-0.3,0-0.4-0.1C78.3,38,78.3,37.9,78.3,37.7z M79.2,44.8h-0.8v-5.6h0.8
				V44.8z"/>
			<path class="st1" d="M83.3,44.9c-0.8,0-1.4-0.3-1.9-0.8c-0.4-0.5-0.7-1.2-0.7-2.1c0-0.9,0.2-1.7,0.7-2.2c0.5-0.5,1.1-0.8,1.9-0.8
				c0.3,0,0.5,0,0.8,0.1c0.3,0.1,0.5,0.1,0.6,0.2l-0.3,0.7c-0.2-0.1-0.4-0.1-0.6-0.2c-0.2,0-0.4-0.1-0.6-0.1c-1.1,0-1.7,0.7-1.7,2.2
				c0,0.7,0.1,1.2,0.4,1.6c0.3,0.4,0.7,0.6,1.2,0.6c0.5,0,0.9-0.1,1.4-0.3v0.8C84.3,44.8,83.8,44.9,83.3,44.9z"/>
			<path class="st1" d="M85.9,37.7c0-0.2,0-0.3,0.1-0.4c0.1-0.1,0.2-0.1,0.4-0.1c0.1,0,0.3,0,0.4,0.1c0.1,0.1,0.1,0.2,0.1,0.4
				c0,0.2,0,0.3-0.1,0.4c-0.1,0.1-0.2,0.1-0.4,0.1c-0.1,0-0.3,0-0.4-0.1C86,38,85.9,37.9,85.9,37.7z M86.9,44.8H86v-5.6h0.8V44.8z"
				/>
			<path class="st1" d="M92.5,44.8v-3.6c0-0.5-0.1-0.8-0.3-1c-0.2-0.2-0.5-0.3-1-0.3c-0.6,0-1,0.2-1.3,0.5s-0.4,0.8-0.4,1.6v2.9
				h-0.8v-5.6h0.7l0.1,0.8h0c0.2-0.3,0.4-0.5,0.7-0.6c0.3-0.2,0.7-0.2,1-0.2c0.7,0,1.2,0.2,1.5,0.5c0.3,0.3,0.5,0.8,0.5,1.6v3.7
				H92.5z"/>
			<path class="st1" d="M98.5,44.8L98.4,44h0c-0.3,0.4-0.6,0.6-0.8,0.7c-0.3,0.1-0.6,0.2-1,0.2c-0.6,0-1-0.1-1.3-0.4
				c-0.3-0.3-0.5-0.7-0.5-1.2c0-1.1,0.9-1.7,2.7-1.8l1,0v-0.3c0-0.4-0.1-0.8-0.3-1c-0.2-0.2-0.5-0.3-0.9-0.3c-0.5,0-1,0.1-1.6,0.4
				l-0.3-0.6c0.3-0.2,0.6-0.3,0.9-0.4c0.3-0.1,0.7-0.1,1-0.1c0.7,0,1.2,0.1,1.5,0.4c0.3,0.3,0.5,0.8,0.5,1.4v3.8H98.5z M96.6,44.2
				c0.5,0,0.9-0.1,1.2-0.4s0.5-0.7,0.5-1.2v-0.5l-0.8,0c-0.7,0-1.2,0.1-1.5,0.3c-0.3,0.2-0.4,0.5-0.4,0.9c0,0.3,0.1,0.5,0.3,0.7
				C96,44.1,96.3,44.2,96.6,44.2z"/>
			<path class="st1" d="M107.9,44.8h-4.2v-7.5h4.2v0.8h-3.3v2.4h3.1v0.8h-3.1V44h3.3V44.8z"/>
			<path class="st1" d="M113.1,43.3c0,0.5-0.2,0.9-0.6,1.2s-0.9,0.4-1.6,0.4c-0.7,0-1.3-0.1-1.7-0.4v-0.8c0.3,0.1,0.6,0.2,0.9,0.3
				c0.3,0.1,0.6,0.1,0.9,0.1c0.4,0,0.8-0.1,1-0.2c0.2-0.1,0.4-0.4,0.4-0.6c0-0.2-0.1-0.4-0.3-0.6s-0.6-0.3-1.1-0.5
				c-0.5-0.2-0.9-0.4-1.1-0.5c-0.2-0.1-0.4-0.3-0.5-0.5s-0.2-0.4-0.2-0.7c0-0.5,0.2-0.8,0.6-1.1c0.4-0.3,0.9-0.4,1.5-0.4
				c0.6,0,1.2,0.1,1.8,0.4l-0.3,0.7c-0.6-0.2-1.1-0.3-1.5-0.3c-0.4,0-0.7,0.1-0.9,0.2c-0.2,0.1-0.3,0.3-0.3,0.5c0,0.1,0,0.3,0.1,0.4
				c0.1,0.1,0.2,0.2,0.4,0.3c0.2,0.1,0.5,0.2,1,0.4c0.7,0.2,1.1,0.5,1.3,0.7C113,42.6,113.1,42.9,113.1,43.3z"/>
			<path class="st1" d="M116.3,44.2c0.1,0,0.3,0,0.4,0s0.3,0,0.3-0.1v0.7c-0.1,0-0.2,0.1-0.4,0.1c-0.2,0-0.3,0-0.5,0
				c-1.1,0-1.6-0.6-1.6-1.7v-3.3h-0.8v-0.4l0.8-0.4l0.4-1.2h0.5v1.3h1.6v0.7h-1.6v3.3c0,0.3,0.1,0.6,0.2,0.8
				C115.8,44.1,116,44.2,116.3,44.2z"/>
			<path class="st1" d="M120.5,44.9c-0.8,0-1.5-0.3-2-0.8c-0.5-0.5-0.7-1.2-0.7-2.1c0-0.9,0.2-1.6,0.7-2.2s1-0.8,1.8-0.8
				c0.7,0,1.3,0.2,1.7,0.7c0.4,0.5,0.6,1.1,0.6,1.8v0.5h-3.9c0,0.7,0.2,1.2,0.5,1.5c0.3,0.3,0.8,0.5,1.3,0.5c0.6,0,1.2-0.1,1.8-0.4
				v0.8c-0.3,0.1-0.6,0.2-0.9,0.3C121.2,44.9,120.9,44.9,120.5,44.9z M120.3,39.8c-0.5,0-0.8,0.1-1.1,0.4c-0.3,0.3-0.4,0.7-0.5,1.2
				h2.9c0-0.5-0.1-0.9-0.4-1.2C121.1,40,120.8,39.8,120.3,39.8z M119.7,38.3c0.2-0.2,0.3-0.5,0.5-0.8c0.2-0.3,0.3-0.6,0.4-0.8h1v0.1
				c-0.2,0.2-0.4,0.5-0.7,0.8s-0.6,0.6-0.8,0.8h-0.6V38.3z"/>
			<path class="st1" d="M125.9,44.2c0.1,0,0.3,0,0.4,0s0.3,0,0.3-0.1v0.7c-0.1,0-0.2,0.1-0.4,0.1c-0.2,0-0.3,0-0.5,0
				c-1.1,0-1.6-0.6-1.6-1.7v-3.3h-0.8v-0.4l0.8-0.4l0.4-1.2h0.5v1.3h1.6v0.7H125v3.3c0,0.3,0.1,0.6,0.2,0.8
				C125.4,44.1,125.6,44.2,125.9,44.2z"/>
			<path class="st1" d="M127.7,37.7c0-0.2,0-0.3,0.1-0.4c0.1-0.1,0.2-0.1,0.4-0.1c0.1,0,0.3,0,0.4,0.1c0.1,0.1,0.1,0.2,0.1,0.4
				c0,0.2,0,0.3-0.1,0.4c-0.1,0.1-0.2,0.1-0.4,0.1c-0.1,0-0.3,0-0.4-0.1C127.7,38,127.7,37.9,127.7,37.7z M128.6,44.8h-0.8v-5.6h0.8
				V44.8z"/>
			<path class="st1" d="M132.6,44.9c-0.8,0-1.4-0.3-1.9-0.8c-0.4-0.5-0.7-1.2-0.7-2.1c0-0.9,0.2-1.7,0.7-2.2
				c0.5-0.5,1.1-0.8,1.9-0.8c0.3,0,0.5,0,0.8,0.1s0.5,0.1,0.6,0.2l-0.3,0.7c-0.2-0.1-0.4-0.1-0.6-0.2c-0.2,0-0.4-0.1-0.6-0.1
				c-1.1,0-1.7,0.7-1.7,2.2c0,0.7,0.1,1.2,0.4,1.6c0.3,0.4,0.7,0.6,1.2,0.6c0.5,0,0.9-0.1,1.4-0.3v0.8
				C133.7,44.8,133.2,44.9,132.6,44.9z"/>
			<path class="st1" d="M138.8,44.8l-0.2-0.8h0c-0.3,0.4-0.6,0.6-0.8,0.7c-0.3,0.1-0.6,0.2-1,0.2c-0.6,0-1-0.1-1.3-0.4
				c-0.3-0.3-0.5-0.7-0.5-1.2c0-1.1,0.9-1.7,2.7-1.8l1,0v-0.3c0-0.4-0.1-0.8-0.3-1c-0.2-0.2-0.5-0.3-0.9-0.3c-0.5,0-1,0.1-1.6,0.4
				l-0.3-0.6c0.3-0.2,0.6-0.3,0.9-0.4c0.3-0.1,0.7-0.1,1-0.1c0.7,0,1.2,0.1,1.5,0.4s0.5,0.8,0.5,1.4v3.8H138.8z M136.9,44.2
				c0.5,0,0.9-0.1,1.2-0.4c0.3-0.3,0.5-0.7,0.5-1.2v-0.5l-0.8,0c-0.7,0-1.2,0.1-1.5,0.3c-0.3,0.2-0.4,0.5-0.4,0.9
				c0,0.3,0.1,0.5,0.3,0.7C136.3,44.1,136.6,44.2,136.9,44.2z"/>
			<path class="st1" d="M143.6,42.9c0-0.4,0.1-0.8,0.4-1.2c0.2-0.3,0.7-0.7,1.3-1c-0.3-0.3-0.5-0.6-0.6-0.7
				c-0.1-0.2-0.2-0.3-0.2-0.5s-0.1-0.4-0.1-0.6c0-0.5,0.2-0.9,0.5-1.2c0.3-0.3,0.8-0.4,1.4-0.4c0.6,0,1,0.1,1.3,0.4
				c0.3,0.3,0.5,0.7,0.5,1.2c0,0.4-0.1,0.7-0.3,1c-0.2,0.3-0.6,0.6-1.2,0.9l2.1,2c0.2-0.2,0.3-0.5,0.5-0.7c0.1-0.3,0.2-0.6,0.3-0.9
				h0.9c-0.2,1-0.6,1.7-1,2.2l1.5,1.5h-1.2l-0.9-0.9c-0.4,0.4-0.8,0.6-1.2,0.8c-0.4,0.2-0.9,0.2-1.4,0.2c-0.7,0-1.3-0.2-1.7-0.5
				C143.8,44,143.6,43.5,143.6,42.9z M145.9,44.2c0.8,0,1.5-0.3,2-0.8l-2.2-2.2c-0.4,0.2-0.6,0.4-0.8,0.6c-0.2,0.2-0.3,0.3-0.3,0.5
				c-0.1,0.2-0.1,0.4-0.1,0.6c0,0.4,0.1,0.7,0.4,0.9C145.2,44,145.5,44.2,145.9,44.2z M145.2,38.8c0,0.2,0.1,0.5,0.2,0.7
				c0.1,0.2,0.3,0.5,0.6,0.8c0.4-0.3,0.7-0.5,0.9-0.7c0.2-0.2,0.3-0.5,0.3-0.8c0-0.3-0.1-0.5-0.3-0.6c-0.2-0.2-0.4-0.2-0.7-0.2
				c-0.3,0-0.5,0.1-0.7,0.2S145.2,38.5,145.2,38.8z"/>
			<path class="st1" d="M158.7,42.8c0,0.7-0.2,1.2-0.7,1.5s-1.1,0.6-1.9,0.6c-0.9,0-1.6-0.1-2-0.3v-0.8c0.3,0.1,0.6,0.2,1,0.3
				s0.7,0.1,1.1,0.1c0.6,0,1-0.1,1.3-0.3c0.3-0.2,0.4-0.5,0.4-0.9c0-0.3-0.1-0.5-0.2-0.6c-0.1-0.2-0.3-0.3-0.5-0.5
				c-0.2-0.1-0.6-0.3-1.1-0.5c-0.7-0.2-1.2-0.5-1.5-0.9c-0.3-0.3-0.4-0.8-0.4-1.3c0-0.6,0.2-1,0.6-1.4c0.4-0.3,1-0.5,1.7-0.5
				c0.7,0,1.4,0.1,2.1,0.4l-0.3,0.8c-0.6-0.3-1.2-0.4-1.8-0.4c-0.5,0-0.8,0.1-1.1,0.3c-0.3,0.2-0.4,0.5-0.4,0.8c0,0.3,0,0.5,0.1,0.6
				c0.1,0.2,0.3,0.3,0.5,0.5c0.2,0.1,0.6,0.3,1,0.5c0.8,0.3,1.3,0.6,1.6,0.9C158.5,41.9,158.7,42.3,158.7,42.8z"/>
			<path class="st1" d="M162.7,44.9c-0.4,0-0.7-0.1-1-0.2s-0.6-0.3-0.8-0.6h-0.1c0,0.3,0.1,0.6,0.1,0.9v2.3h-0.8v-8.1h0.7l0.1,0.8h0
				c0.2-0.3,0.5-0.5,0.8-0.7c0.3-0.1,0.6-0.2,1-0.2c0.7,0,1.3,0.3,1.7,0.8c0.4,0.5,0.6,1.2,0.6,2.1c0,0.9-0.2,1.6-0.6,2.1
				C164,44.7,163.4,44.9,162.7,44.9z M162.5,39.8c-0.6,0-1,0.2-1.2,0.5s-0.4,0.8-0.4,1.5V42c0,0.8,0.1,1.4,0.4,1.7
				c0.3,0.3,0.7,0.5,1.3,0.5c0.5,0,0.9-0.2,1.1-0.6s0.4-0.9,0.4-1.6c0-0.7-0.1-1.2-0.4-1.6C163.4,40,163,39.8,162.5,39.8z"/>
			<path class="st1" d="M169.9,44.8l-0.2-0.8h0c-0.3,0.4-0.6,0.6-0.8,0.7c-0.3,0.1-0.6,0.2-1,0.2c-0.6,0-1-0.1-1.3-0.4
				c-0.3-0.3-0.5-0.7-0.5-1.2c0-1.1,0.9-1.7,2.7-1.8l1,0v-0.3c0-0.4-0.1-0.8-0.3-1c-0.2-0.2-0.5-0.3-0.9-0.3c-0.5,0-1,0.1-1.6,0.4
				l-0.3-0.6c0.3-0.2,0.6-0.3,0.9-0.4c0.3-0.1,0.7-0.1,1-0.1c0.7,0,1.2,0.1,1.5,0.4s0.5,0.8,0.5,1.4v3.8H169.9z M168,44.2
				c0.5,0,0.9-0.1,1.2-0.4c0.3-0.3,0.5-0.7,0.5-1.2v-0.5l-0.8,0c-0.7,0-1.2,0.1-1.5,0.3c-0.3,0.2-0.4,0.5-0.4,0.9
				c0,0.3,0.1,0.5,0.3,0.7C167.4,44.1,167.7,44.2,168,44.2z"/>
		</g>
		<g id="logo_2_">
			<g>
				<path class="st2" d="M50.6,32.1V13.8h9.7v2h-7.5V21h7.5v2h-7.5v9.1H50.6z"/>
				<path class="st2" d="M63.6,32.1V13.8h2.2v18.4H63.6z"/>
				<path class="st2" d="M77,21.9c1.2,0.5,2.1,1.2,2.7,2c0.6,0.8,0.9,1.8,0.9,3c0,1.7-0.5,3-1.6,4.1c-1.1,1-2.5,1.5-4.3,1.5
					c-1.4,0-2.7-0.4-3.6-1.1c-1-0.7-1.6-1.8-2-3.2l2-1c0.3,1.1,0.7,2,1.3,2.5c0.6,0.6,1.4,0.9,2.3,0.9c1.1,0,2-0.3,2.7-0.9
					s1-1.5,1-2.5c0-0.8-0.2-1.5-0.7-2.1c-0.5-0.6-1.2-1.1-2.1-1.5l-2.2-1c-1.2-0.5-2.1-1.2-2.7-2c-0.6-0.8-0.9-1.8-0.9-2.9
					c0-1.3,0.5-2.4,1.5-3.2c1-0.9,2.2-1.3,3.7-1.3c1.1,0,2.1,0.2,2.9,0.7c0.8,0.5,1.4,1.2,1.9,2.1l-1.8,1.2
					c-0.4-0.7-0.9-1.2-1.4-1.6c-0.5-0.3-1.1-0.5-1.7-0.5c-0.8,0-1.5,0.3-2,0.8c-0.5,0.5-0.8,1.1-0.8,1.9c0,0.7,0.2,1.2,0.6,1.7
					c0.4,0.5,1,0.9,1.9,1.3L77,21.9z"/>
				<path class="st2" d="M83.5,32.1V13.8h2.2v18.4H83.5z"/>
				<path class="st2" d="M108.9,23c0,1.3-0.2,2.5-0.7,3.7c-0.5,1.2-1.2,2.2-2.1,3.1c-0.9,0.9-2,1.6-3.2,2.1
					c-1.2,0.5-2.5,0.7-3.8,0.7s-2.5-0.2-3.7-0.7c-1.2-0.5-2.3-1.2-3.2-2.1c-0.9-0.9-1.6-1.9-2.1-3.1c-0.5-1.2-0.7-2.4-0.7-3.7
					c0-1.3,0.2-2.6,0.7-3.7c0.5-1.2,1.2-2.2,2.1-3.1c0.9-0.9,2-1.6,3.2-2.1c1.2-0.5,2.5-0.7,3.8-0.7c1.3,0,2.6,0.2,3.8,0.7
					c1.2,0.5,2.3,1.2,3.2,2.1c0.9,0.9,1.6,1.9,2.1,3.1C108.7,20.4,108.9,21.7,108.9,23z M99.1,30.6c1,0,2-0.2,2.9-0.6
					c0.9-0.4,1.7-0.9,2.5-1.7c0.7-0.7,1.3-1.5,1.6-2.4s0.6-1.9,0.6-2.9c0-1-0.2-2-0.6-2.9c-0.4-0.9-0.9-1.7-1.6-2.5
					c-0.7-0.7-1.5-1.3-2.4-1.6c-0.9-0.4-1.9-0.6-2.9-0.6c-1,0-2,0.2-2.9,0.6c-0.9,0.4-1.7,0.9-2.4,1.6c-0.7,0.7-1.3,1.6-1.6,2.5
					c-0.4,0.9-0.6,1.9-0.6,2.9c0,1,0.2,2,0.6,2.9c0.4,0.9,0.9,1.7,1.7,2.5c0.7,0.7,1.6,1.3,2.5,1.7C97.1,30.4,98.1,30.6,99.1,30.6z"
					/>
				<path class="st2" d="M119.2,21.9c1.2,0.5,2.1,1.2,2.7,2c0.6,0.8,0.9,1.8,0.9,3c0,1.7-0.5,3-1.6,4.1c-1.1,1-2.5,1.5-4.3,1.5
					c-1.4,0-2.7-0.4-3.6-1.1c-1-0.7-1.6-1.8-2-3.2l2-1c0.3,1.1,0.7,2,1.3,2.5c0.6,0.6,1.4,0.9,2.3,0.9c1.1,0,2-0.3,2.7-0.9
					c0.7-0.6,1-1.5,1-2.5c0-0.8-0.2-1.5-0.7-2.1c-0.5-0.6-1.2-1.1-2.1-1.5l-2.2-1c-1.2-0.5-2.1-1.2-2.7-2s-0.9-1.8-0.9-2.9
					c0-1.3,0.5-2.4,1.5-3.2c1-0.9,2.2-1.3,3.7-1.3c1.1,0,2.1,0.2,2.9,0.7c0.8,0.5,1.4,1.2,1.9,2.1l-1.8,1.2
					c-0.4-0.7-0.9-1.2-1.4-1.6c-0.5-0.3-1.1-0.5-1.7-0.5c-0.8,0-1.5,0.3-2,0.8c-0.5,0.5-0.8,1.1-0.8,1.9c0,0.7,0.2,1.2,0.6,1.7
					s1,0.9,1.9,1.3L119.2,21.9z"/>
				<path class="st2" d="M128.9,32.1V15.8h-5.2v-2.1h12.6v2.1h-5.2v16.3H128.9z"/>
				<path class="st2" d="M138.7,32.1V13.8h9.7v2h-7.5V21h7.5v2h-7.5v7h7.5v2H138.7z"/>
				<path class="st2" d="M155.3,32.1V15.8h-5.2v-2.1h12.6v2.1h-5.2v16.3H155.3z"/>
				<path class="st2" d="M165.1,32.1V13.8h2.2v18.4H165.1z"/>
				<path class="st2" d="M171.7,32.1V13.8h2.2v8.2l7.7-8.2h2.6l-7.9,8.3l8.7,10.1h-2.8l-8.3-9.9v9.9H171.7z"/>
			</g>
		</g>
	</g>
</g>
</svg>
