<?xml version="1.0" encoding="utf-8"?>
<!-- Generator: Adobe Illustrator 24.0.0, SVG Export Plug-In . SVG Version: 6.00 Build 0)  -->
<svg version="1.1" id="Capa_1" xmlns="http://www.w3.org/2000/svg" xmlns:xlink="http://www.w3.org/1999/xlink" x="0px" y="0px"
	 viewBox="0 0 100 100" style="enable-background:new 0 0 100 100;" xml:space="preserve">
<style type="text/css">
	.st0{fill:url(#SVGID_1_);}
	.st1{fill:url(#SVGID_2_);}
	.st2{fill:url(#SVGID_3_);}
	.st3{fill:url(#SVGID_4_);}
</style>
<g>
	<linearGradient id="SVGID_1_" gradientUnits="userSpaceOnUse" x1="20.8347" y1="84.0074" x2="79.248" y2="25.5941">
		<stop  offset="0" style="stop-color:#D52084"/>
		<stop  offset="0.1708" style="stop-color:#D02084"/>
		<stop  offset="0.3748" style="stop-color:#C12284"/>
		<stop  offset="0.5957" style="stop-color:#A92484"/>
		<stop  offset="0.8271" style="stop-color:#882785"/>
		<stop  offset="1" style="stop-color:#6A2A85"/>
	</linearGradient>
	<path class="st0" d="M71.4,62.8c3.2,5.6,6.4,11.1,9.6,16.6c0.1,0.3,0.4,0.5,0.4,0.8c0,0.6,0.2,1.4-0.1,1.8
		c-0.3,0.4-1.2,0.6-1.7,0.5c-2.5-0.6-5-1.3-7.5-2c-0.3-0.1-0.6-0.1-1.1-0.3c-0.6,2.3-1.2,4.6-1.9,6.9c-0.1,0.5-0.2,1.1-0.5,1.5
		c-0.3,0.5-0.8,1.3-1.3,1.4c-0.5,0.1-1.4-0.4-1.7-0.9c-1.7-2.8-3.3-5.6-4.9-8.4c-1.8-3.1-3.6-6.2-5.4-9.3c-0.3-0.5-1-0.7-1.5-1
		c-0.4-0.2-0.8-0.2-1.2-0.4c-1.7-0.7-3.5-0.7-5.2,0c-0.3,0.1-0.7,0.3-1.1,0.3c-0.8,0-1.2,0.5-1.5,1.1c-3.3,5.7-6.6,11.5-9.9,17.2
		c-0.1,0.2-0.2,0.5-0.4,0.6c-0.5,0.3-1.1,0.9-1.6,0.8c-0.5-0.1-1.1-0.7-1.3-1.3c-0.8-2.8-1.6-5.6-2.4-8.5c-2.6,0.7-5,1.3-7.5,2
		c-0.2,0.1-0.5,0.1-0.7,0.2c-0.8,0.3-1.6,0.4-2.2-0.4c-0.6-0.8-0.3-1.6,0.2-2.3c3.1-5.3,6.1-10.6,9.2-15.9c0.4-0.7,0.4-1.2-0.2-1.8
		c-1.4-1.3-2.1-3-2.4-4.8c-0.3-1.6-1-3-2.3-4c-3.4-2.9-4.3-6.4-2.8-10.7c0.5-1.5,0.5-2.9,0-4.4c-1.4-4.1-0.5-7.6,2.7-10.5
		c1.3-1.1,2.1-2.4,2.4-4.1c0.7-4.1,3.5-6.9,7.6-7.6c1.7-0.3,3-1.1,4.1-2.3c2.9-3.3,6.3-4.2,10.5-2.8c1.6,0.5,3.1,0.5,4.6,0
		c4.1-1.4,7.7-0.5,10.5,2.8c1,1.2,2.3,2,3.9,2.3c4.2,0.7,7,3.5,7.8,7.7c0.3,1.6,1,2.9,2.2,3.9c3.4,2.9,4.3,6.4,2.9,10.6
		c-0.6,1.6-0.5,3.1,0,4.6c1.4,4.1,0.5,7.7-2.8,10.5c-1.3,1.1-2,2.4-2.3,4C74.1,59.3,73.6,60.3,71.4,62.8z M55.3,67.4
		c2.3,0,3.9-0.8,5.1-2.3c1.6-2,3.7-3.1,6.1-3.5c2.7-0.5,4.4-2.1,4.8-4.7c0.5-2.6,1.7-4.7,3.7-6.4c2.1-1.7,2.6-4.1,1.7-6.6
		c-0.9-2.4-0.8-4.8,0-7.2c0.9-2.5,0.4-4.8-1.6-6.5c-2.1-1.8-3.3-3.9-3.8-6.7c-0.5-2.5-2.1-4.1-4.6-4.5c-2.7-0.5-4.8-1.7-6.6-3.8
		c-1.7-2-3.9-2.6-6.3-1.7c-2.5,0.9-5,0.9-7.6,0c-2.5-0.9-4.7-0.2-6.4,1.8c-1.7,2-3.8,3.2-6.3,3.7c-2.7,0.5-4.4,2.3-4.9,5
		c-0.4,2.4-1.5,4.3-3.3,5.8c-2.3,2-3,4.3-1.9,7.2c0.8,2.1,0.8,4.2,0.1,6.4c-1.1,3.3-0.6,5.3,1.9,7.5c1.7,1.5,2.8,3.4,3.2,5.6
		c0.5,2.8,2.2,4.6,5,5.1c2.3,0.4,4.2,1.4,5.8,3.2c2.2,2.6,4.3,3.1,7.6,2c2-0.7,4.1-0.7,6.1,0C54,67.1,54.8,67.3,55.3,67.4z
		 M58.3,70.1c2.7,4.7,5.4,9.4,8.3,14.3c0.6-2.3,1.1-4.3,1.7-6.3c0.3-1.3,1-1.6,2.2-1.4c0.5,0.1,1,0.3,1.6,0.4c1.5,0.4,3,0.8,4.9,1.2
		c-2.8-4.8-5.4-9.3-8-13.8c-0.1-0.2-0.4-0.3-0.6-0.3c-1.8,0.4-3.8,0.6-5,2.2C62,68.2,60.4,69.5,58.3,70.1z M33.6,84.5
		c2.9-5,5.5-9.6,8.1-14c-1.5-1.1-3.1-1.9-4.1-3.2c-1.7-2-3.7-2.6-6.1-2.9c-2.7,4.6-5.3,9.2-8.1,14.1c2.3-0.6,4.2-1.1,6.2-1.6
		c1.5-0.4,2.1,0,2.5,1.5C32.5,80.3,33,82.3,33.6,84.5z"/>
	<linearGradient id="SVGID_2_" gradientUnits="userSpaceOnUse" x1="35.7142" y1="55.13" x2="64.489" y2="26.3553">
		<stop  offset="0" style="stop-color:#D52084"/>
		<stop  offset="0.1708" style="stop-color:#D02084"/>
		<stop  offset="0.3748" style="stop-color:#C12284"/>
		<stop  offset="0.5957" style="stop-color:#A92484"/>
		<stop  offset="0.8271" style="stop-color:#882785"/>
		<stop  offset="1" style="stop-color:#6A2A85"/>
	</linearGradient>
	<path class="st1" d="M29.8,40.7c0-8.1,4.8-15.5,12.2-18.6c0.8-0.3,1.6-0.5,2.3,0.2c0.8,0.9,0.4,2-1,2.6c-4,1.8-7,4.6-8.9,8.6
		C29.7,43.7,36,55.7,47,57.7c9.6,1.8,18.9-5,20.1-14.7c1-7.8-3-14.8-10.2-18c-0.9-0.4-1.6-0.8-1.5-1.9c0.1-1.2,1.3-1.7,2.6-1.1
		c4.8,2.1,8.4,5.6,10.5,10.4c5.5,12.3-2.1,26.2-15.4,28.4C41,62.9,29.8,53.3,29.8,40.7z"/>
	<linearGradient id="SVGID_3_" gradientUnits="userSpaceOnUse" x1="42.6233" y1="46.1045" x2="57.5697" y2="31.158">
		<stop  offset="0" style="stop-color:#D52084"/>
		<stop  offset="0.1708" style="stop-color:#D02084"/>
		<stop  offset="0.3748" style="stop-color:#C12284"/>
		<stop  offset="0.5957" style="stop-color:#A92484"/>
		<stop  offset="0.8271" style="stop-color:#882785"/>
		<stop  offset="1" style="stop-color:#6A2A85"/>
	</linearGradient>
	<path class="st2" d="M48.2,37.7c2.2-2.2,4.2-4.3,6.2-6.3c1.3-1.3,2-1.3,3.3,0c1.3,1.3,2.6,2.6,3.9,3.9c1.1,1.2,1.2,1.8,0,3
		c-4,4-8,8-12,12c-1.1,1.1-1.8,1.1-2.9,0c-2.8-2.8-5.7-5.7-8.5-8.5c-1-1-1-1.8,0-2.8c1.4-1.5,2.9-2.9,4.3-4.3c1.1-1,1.7-1,2.8,0
		C46.4,35.7,47.2,36.6,48.2,37.7z M44.3,37.7c-1.1,1-1.9,1.9-2.7,2.6c2.3,2.3,4.5,4.6,6.7,6.8c3.4-3.4,6.8-6.8,10.3-10.3
		C57.8,36,57,35.2,56,34.2c-2.1,2.2-4.2,4.3-6.3,6.4c-1,1-1.8,1-2.8,0C46,39.7,45.1,38.7,44.3,37.7z"/>
	<linearGradient id="SVGID_4_" gradientUnits="userSpaceOnUse" x1="48.9871" y1="23.1048" x2="51.1942" y2="20.8978">
		<stop  offset="0" style="stop-color:#D52084"/>
		<stop  offset="0.1708" style="stop-color:#D02084"/>
		<stop  offset="0.3748" style="stop-color:#C12284"/>
		<stop  offset="0.5957" style="stop-color:#A92484"/>
		<stop  offset="0.8271" style="stop-color:#882785"/>
		<stop  offset="1" style="stop-color:#6A2A85"/>
	</linearGradient>
	<path class="st3" d="M51.6,21.9c0,0.9-0.6,1.6-1.5,1.6c-0.9,0-1.5-0.5-1.5-1.5c0-0.9,0.6-1.6,1.5-1.6C51,20.5,51.6,21.1,51.6,21.9z
		"/>
</g>
</svg>
