<?xml version="1.0" encoding="utf-8"?>
<!-- Generator: Adobe Illustrator 24.0.0, SVG Export Plug-In . SVG Version: 6.00 Build 0)  -->
<svg version="1.1" id="Capa_1" xmlns="http://www.w3.org/2000/svg" xmlns:xlink="http://www.w3.org/1999/xlink" x="0px" y="0px"
	 viewBox="0 0 100 100" style="enable-background:new 0 0 100 100;" xml:space="preserve">
<style type="text/css">
	.st0{fill:url(#SVGID_1_);}
	.st1{fill:url(#SVGID_2_);}
	.st2{fill:url(#SVGID_3_);}
	.st3{fill:url(#SVGID_4_);}
	.st4{fill:url(#SVGID_5_);}
	.st5{fill:url(#SVGID_6_);}
</style>
<g>
	<linearGradient id="SVGID_1_" gradientUnits="userSpaceOnUse" x1="33.9716" y1="79.417" x2="83.819" y2="29.5696">
		<stop  offset="0" style="stop-color:#D52084"/>
		<stop  offset="0.1708" style="stop-color:#D02084"/>
		<stop  offset="0.3748" style="stop-color:#C12284"/>
		<stop  offset="0.5957" style="stop-color:#A92484"/>
		<stop  offset="0.8271" style="stop-color:#882785"/>
		<stop  offset="1" style="stop-color:#6A2A85"/>
	</linearGradient>
	<path class="st0" d="M53.9,67.3c-2.9-0.2-5.6-1.1-7.8-3c-2.6-2.1-4.1-4.9-4.6-8.2c-0.1-0.6-0.2-0.9-0.8-1.1c-2-0.8-3.1-2.3-3.2-4.4
		c0-2.1,1.2-3.6,3-4.4c1.1-0.4,1.1-0.9,0.7-1.9c-0.8-2-1.5-4.1-1.9-6.2c-1.1-5.9,1.2-10.6,6.4-13.7c1-0.6,2.1-1.1,3.1-1.6
		c-0.3-0.9-0.6-1.8-0.8-2.7c-0.6-3,0.4-5.6,3-7.1c5-3,10.2-3.3,15.3-0.4c3.6,2,4.6,5.2,3.2,9.1c-0.1,0.3-0.3,0.7-0.4,1.1
		c1,0.5,2,1,3,1.5c3.5,2,6,4.7,6.8,8.8c0.7,3.9-0.2,7.5-1.8,11c-0.1,0.3-0.2,0.6-0.4,0.9c-0.4,0.6-0.1,0.9,0.5,1.2
		c2,0.8,3.2,2.3,3.2,4.5c0,2.2-1.2,3.7-3.3,4.6c-0.3,0.1-0.6,0.5-0.6,0.8c-0.7,6-5.8,10.9-11.7,11.4c-0.2,0-0.5,0.1-0.7,0.1
		c0,0.1-0.1,0.2-0.1,0.3c-0.1,2.5-0.1,2.5,2.3,2.9c3.9,0.8,6.7,3.7,7.3,8c0.4,3.1,0.7,6.2,1,9.3c0.1,1.2-0.3,1.6-1.6,1.6
		c-9.3,0-18.6,0-27.9,0c-1.2,0-1.6-0.4-1.5-1.7c0.1-1.6,0.2-3.1,0.5-4.7c0.1-0.4,0.8-0.7,1.2-1.1c0.3,0.4,0.9,0.8,0.9,1.2
		c0.1,1.3-0.1,2.5-0.2,3.8c0.4,0,0.7,0.1,0.9,0.1c1,0,2,0,3.1,0c0.3-1.7,0.7-3.2,0.8-4.8c0.3-3.7,2.2-4.8,5.3-5.4
		c2.4-0.5,4.8-0.4,7.2,0.4c2.1,0.7,3.4,2,3.7,4.3c0.2,1.8,0.6,3.6,0.9,5.5c1.4,0,2.7,0,4.1,0c-0.1-1-0.1-2.1-0.2-3.1
		c-0.3-2.2-0.5-4.5-1-6.7c-0.7-2.7-2.7-4.4-5.6-4.6c-0.5-0.1-1.1-0.2-1.6-0.3c-1.3-0.4-1.9-1.3-2-2.7c0-0.8,0-1.6,0-2.4
		c-1.8,0-3.5,0-5.3,0c0,0.6,0,1.3,0,1.9c0,2.1-0.9,3.3-3,3.4c-3.4,0.3-5.4,2.1-6.3,5.2c-0.2,0.8-0.6,1.3-1.5,1
		c-0.9-0.3-0.9-1-0.7-1.7c1-3.5,3.1-5.9,6.8-6.7C54.1,70.1,54.1,70.1,53.9,67.3z M43.9,44.1c0,0.3,0,0.5,0,0.8
		c-0.1,2.5-0.1,2.5-2.3,3.4c-1.2,0.5-1.9,1.5-1.8,2.5c0.1,1.2,1,2.1,2.3,2.2c1.2,0.1,1.5,0.6,1.5,1.7c0.2,5.5,4.5,9.9,9.9,10.2
		c3.5,0.2,7.1,0.2,10.6,0c5.5-0.3,9.8-4.7,10-10.3c0-1,0.3-1.5,1.5-1.7c2.1-0.2,3.1-2.4,1.9-3.8c-0.4-0.5-1.2-0.9-1.9-1.1
		c-1.1-0.2-1.6-0.7-1.5-1.8c0.1-0.6,0-1.1,0-1.7c-4.2-0.6-7.6-2.4-10.5-5.5C58,44.2,51.4,45.6,43.9,44.1z M76.1,39.2
		c1.6-3.8,0.5-8.6-2.7-11.3c-3.8-3.3-8.4-4.5-13.3-4.9c-1.9-0.2-3.5,1.4-3.7,3.1c-0.2,1.8,1,3.4,2.9,3.8c0.8,0.2,1.5,0.3,2.3,0.5
		c1.7,0.4,3.3,0.9,5,1.4c0.7,0.2,1.1,0.7,0.8,1.5c-0.3,0.8-0.9,0.9-1.6,0.7c-0.2-0.1-0.5-0.2-0.7-0.2c-3-0.9-5.9-2-9.2-0.9
		c-3.3,1.1-6.6,1.9-9.4,4.1c-1.5,1.1-2.5,2.6-2.6,4.7c1.6,0.2,3,0.6,4.5,0.6c5.1,0.2,9.6-1.4,13.4-4.8c1.5-1.3,2.4-1.2,3.8,0.2
		c0.3,0.3,0.7,0.7,1.1,1c2.1,1.8,4.6,3,7.4,3.4c-0.1-2.5-1.3-4.2-3.2-5.5c-0.7-0.5-1.1-1.1-0.6-1.8c0.5-0.8,1.2-0.5,1.9-0.1
		C74,35.9,75.3,37.3,76.1,39.2z M51.2,22c5.1-1.7,10.3-1.8,15.4,0c1.9-3.2,1.3-5.9-1.8-7.6c-3.8-2.1-7.7-1.9-11.5-0.2
		C50,15.6,49.2,18.7,51.2,22z M54.7,23.7c-2.1,0-6.2,1.5-8.5,3.1c-4.1,2.8-5.7,6.8-4.6,11.7c0.1,0.2,0.2,0.5,0.3,0.7
		c2.9-5.6,8.5-6.8,13.7-8.5C53.9,27.8,53.8,27.1,54.7,23.7z M65.5,87.2c-0.3-1.8-0.6-3.6-0.9-5.4c-0.1-1-0.7-1.7-1.6-2
		c-2.7-0.9-5.4-0.9-8.1-0.1c-0.6,0.2-1.4,0.8-1.5,1.4c-0.5,1.9-0.7,3.9-1.1,6C56.8,87.2,61,87.2,65.5,87.2z"/>
	<linearGradient id="SVGID_2_" gradientUnits="userSpaceOnUse" x1="62.8154" y1="51.3835" x2="67.3025" y2="46.8965">
		<stop  offset="0" style="stop-color:#D52084"/>
		<stop  offset="0.1708" style="stop-color:#D02084"/>
		<stop  offset="0.3748" style="stop-color:#C12284"/>
		<stop  offset="0.5957" style="stop-color:#A92484"/>
		<stop  offset="0.8271" style="stop-color:#882785"/>
		<stop  offset="1" style="stop-color:#6A2A85"/>
	</linearGradient>
	<path class="st1" d="M65.7,51.8c-2.1-0.1-3.3-0.6-4.2-1.8c-0.3-0.4,0-1.1,0-1.7c0.6,0,1.3-0.2,1.6,0.1c1.7,1.3,2.1,1.3,4,0
		c0.4-0.3,1.1-0.1,1.6-0.1c0,0.6,0.1,1.5-0.2,1.7C67.5,50.8,66.3,51.4,65.7,51.8z"/>
	<linearGradient id="SVGID_3_" gradientUnits="userSpaceOnUse" x1="50.5751" y1="51.3602" x2="54.9423" y2="46.9929">
		<stop  offset="0" style="stop-color:#D52084"/>
		<stop  offset="0.1708" style="stop-color:#D02084"/>
		<stop  offset="0.3748" style="stop-color:#C12284"/>
		<stop  offset="0.5957" style="stop-color:#A92484"/>
		<stop  offset="0.8271" style="stop-color:#882785"/>
		<stop  offset="1" style="stop-color:#6A2A85"/>
	</linearGradient>
	<path class="st2" d="M52.1,51.8c-0.7-0.4-1.9-1-2.9-1.7c-0.3-0.2-0.4-1.2-0.2-1.6c0.4-0.7,1.1-0.5,1.7,0c1.8,1.4,2.2,1.3,4,0
		c0.4-0.3,1.2-0.2,1.6,0c0.2,0.2,0.3,1.1,0,1.5C55.5,51.2,54.2,51.7,52.1,51.8z"/>
	<linearGradient id="SVGID_4_" gradientUnits="userSpaceOnUse" x1="57.139" y1="58.5707" x2="60.706" y2="55.0037">
		<stop  offset="0" style="stop-color:#D52084"/>
		<stop  offset="0.1708" style="stop-color:#D02084"/>
		<stop  offset="0.3748" style="stop-color:#C12284"/>
		<stop  offset="0.5957" style="stop-color:#A92484"/>
		<stop  offset="0.8271" style="stop-color:#882785"/>
		<stop  offset="1" style="stop-color:#6A2A85"/>
	</linearGradient>
	<path class="st3" d="M58.9,59c-1.3,0-2.3-0.6-2.8-1.7c-0.2-0.4,0-1.2,0.3-1.5c0.2-0.2,1.2-0.1,1.4,0.2c0.7,0.9,1.2,0.9,2,0
		c0.3-0.3,1.1-0.4,1.6-0.2c0.3,0.1,0.4,1,0.2,1.5C61.2,58.4,60.2,59,58.9,59z"/>
</g>
<g>
	<linearGradient id="SVGID_5_" gradientUnits="userSpaceOnUse" x1="22.2338" y1="82.1965" x2="41.1417" y2="63.2886">
		<stop  offset="0" style="stop-color:#D52084"/>
		<stop  offset="0.1708" style="stop-color:#D02084"/>
		<stop  offset="0.3748" style="stop-color:#C12284"/>
		<stop  offset="0.5957" style="stop-color:#A92484"/>
		<stop  offset="0.8271" style="stop-color:#882785"/>
		<stop  offset="1" style="stop-color:#6A2A85"/>
	</linearGradient>
	<path class="st4" d="M43.7,69.6c0,1.2,0.1,2.4,0,3.7c-0.2,3.2-1.2,6.2-3,8.9c-2.1,3.2-4.9,5.5-8.4,7c-0.4,0.2-0.8,0.2-1.2,0
		c-6-2.7-9.8-7.2-11.1-13.7c-0.2-1.2-0.3-2.4-0.4-3.6c-0.1-1.7,0-3.5,0-5.2c0-0.7,0.2-1,0.9-1.3c3.5-1.5,7-2.9,10.6-4.4
		c0.4-0.2,0.8-0.2,1.2,0c3.5,1.5,7,2.9,10.6,4.4c0.6,0.2,0.9,0.6,0.9,1.3C43.7,67.5,43.7,68.6,43.7,69.6
		C43.7,69.6,43.7,69.6,43.7,69.6z M21.9,70.1c0,1.7,0,3.4,0.3,5.1c1.2,5.3,4.2,9.2,9.1,11.6c0.3,0.1,0.5,0.1,0.7,0
		c2.4-1.2,4.4-2.8,6-4.9c1.9-2.5,3.1-5.4,3.3-8.6c0.1-2,0.1-3.9,0.1-5.9c0-0.3-0.1-0.4-0.3-0.4c-3.1-1.3-6.1-2.5-9.2-3.8
		c-0.2-0.1-0.4-0.1-0.6,0c-3.1,1.3-6.1,2.5-9.2,3.8c-0.3,0.1-0.3,0.2-0.3,0.5C21.9,68.3,21.9,69.2,21.9,70.1z"/>
	<linearGradient id="SVGID_6_" gradientUnits="userSpaceOnUse" x1="28.1174" y1="76.4169" x2="35.2772" y2="69.257">
		<stop  offset="0" style="stop-color:#D52084"/>
		<stop  offset="0.1708" style="stop-color:#D02084"/>
		<stop  offset="0.3748" style="stop-color:#C12284"/>
		<stop  offset="0.5957" style="stop-color:#A92484"/>
		<stop  offset="0.8271" style="stop-color:#882785"/>
		<stop  offset="1" style="stop-color:#6A2A85"/>
	</linearGradient>
	<path class="st5" d="M30.5,75.6c1.6-1.6,3.1-3.1,4.6-4.6c0.1-0.1,0.2-0.2,0.4-0.3c0.5-0.3,1.1-0.3,1.5,0.1c0.4,0.4,0.4,1,0.1,1.4
		c-0.1,0.1-0.2,0.2-0.3,0.3c-1.7,1.7-3.5,3.5-5.2,5.2c-0.7,0.7-1.2,0.7-1.9,0c-0.9-0.9-1.9-1.9-2.8-2.8c-0.5-0.5-0.6-1.2-0.1-1.7
		c0.5-0.5,1.1-0.4,1.7,0.1C29,74.1,29.7,74.8,30.5,75.6z"/>
</g>
</svg>
