<?xml version="1.0" encoding="utf-8"?>
<!-- Generator: Adobe Illustrator 24.0.0, SVG Export Plug-In . SVG Version: 6.00 Build 0)  -->
<svg version="1.1" id="Capa_1" xmlns="http://www.w3.org/2000/svg" xmlns:xlink="http://www.w3.org/1999/xlink" x="0px" y="0px"
	 viewBox="0 0 100 100" style="enable-background:new 0 0 100 100;" xml:space="preserve">
<style type="text/css">
	.st0{fill:url(#SVGID_1_);}
	.st1{fill:url(#SVGID_2_);}
	.st2{fill:url(#SVGID_3_);}
</style>
<g>
	<linearGradient id="SVGID_1_" gradientUnits="userSpaceOnUse" x1="12.8982" y1="50" x2="87.1018" y2="50">
		<stop  offset="0" style="stop-color:#D52084"/>
		<stop  offset="0.1708" style="stop-color:#D02084"/>
		<stop  offset="0.3748" style="stop-color:#C12284"/>
		<stop  offset="0.5957" style="stop-color:#A92484"/>
		<stop  offset="0.8271" style="stop-color:#882785"/>
		<stop  offset="1" style="stop-color:#6A2A85"/>
	</linearGradient>
	<path class="st0" d="M56,47.3c-0.1-1.7-1.1-2-2.4-2c-8.6,0-17.2,0-25.8,0c-5,0-6.8-1.8-6.9-6.8c0-0.3-0.1-0.5-0.1-1.1
		c-1.4,0-2.7,0-4.1,0C14.4,37.4,13,36.3,13,34c-0.1-4.6-0.1-9.2,0-13.8c0.1-2.4,1.5-3.5,3.9-3.6c1.2,0,2.5,0,3.7,0
		c0.9-4.4,1.8-5.5,6.2-6.3c4.1-0.7,8.2-1.2,12.2-1.7c1.3-0.2,2.7-0.1,2.9,1.6c0.1,1.5-1.1,1.9-2.4,2.1c-4.1,0.6-8.3,1.3-12.4,1.8
		c-1.9,0.2-2.5,1.1-2.5,2.9c0,7.3,0,14.5,0,21.8c0,2.4,0.5,2.9,3,2.9c8.5,0,16.9,0,25.4,0c4.6,0,6.1,1.3,7.1,5.8
		c1.6,7.2,3.2,14.4,4.9,21.6c0.1,0.4,0.3,0.8,0.5,1.4c3.4-3.2,5.7-6.9,7.2-11c0.3-0.8,0-2-0.2-2.9c-0.8-3.6-1.6-7.1-2.4-10.7
		c-0.8-3.2,0.1-5.7,2.3-8c2.6-2.7,5.1-5.4,7.7-8.1c1-1,1.3-2,0.2-3.1c-3.7-3.8-7.4-7.7-11.1-11.5c-3-3.1-6.8-4.2-11.1-4.1
		c-3.2,0.1-6.4,0.2-9.6,0.4c-1.3,0.1-2.6,0-2.7-1.6c-0.2-1.8,1.1-2,2.5-2.1c4.3-0.1,8.6-0.3,13-0.3c4.1,0.1,7.4,2.1,10.2,4.8
		c4.1,3.9,8,8,11.8,12.2c2.1,2.3,1.9,5.1-0.3,7.5c-2.7,2.9-5.4,5.7-8.1,8.5c-1.3,1.4-1.7,2.8-1.3,4.7c2.1,8.7,4,17.3,6,26
		c1,4.1-0.2,7.4-3.5,10c-0.4,0.3-0.6,1.4-0.4,1.9c1.4,2.9,3.7,4.8,6.9,5.4c0.8,0.2,1.6,0.2,2.4,0.3c1.3,0.1,2.4,0.7,2.1,2
		c-0.2,0.7-1.4,1.6-2.2,1.6c-5.3,0.3-10.7-3.1-12.8-8.1c-0.5-1.2-1-1.7-2.4-1.9c-3.7-0.6-6.1-2.9-7-6.6c-1.2-4.8-2.4-9.5-3.3-14.4
		c-0.4-2.1-1.2-2.7-3.2-2.6c-4,0.1-6.5-2.2-6.6-5.6c0-2.8,1.7-5,4.4-5.6C54.7,47.6,55.3,47.5,56,47.3z M74.5,65.5
		c-2.5,2.9-4.6,5.6-7.1,8.1c-1.2,1.2-1.1,2-0.3,3.2c1.3,1.7,3.4,2.4,5.5,1.8c2.1-0.7,3.6-2.4,3.4-4.6C75.7,71.2,75,68.3,74.5,65.5z
		 M16.9,20.6c0,4.5,0,8.8,0,13.1c1.4,0,2.6,0,3.8,0c0-4.4,0-8.7,0-13.1C19.4,20.6,18.2,20.6,16.9,20.6z M58.2,55.3
		c-1.2-1.5,0.2-4.3-2.9-4c-1.3,0.1-2.2,1-1.9,2.2C54,56,56,55.2,58.2,55.3z"/>
	<linearGradient id="SVGID_2_" gradientUnits="userSpaceOnUse" x1="55.3374" y1="26.2077" x2="62.7629" y2="26.2077">
		<stop  offset="0" style="stop-color:#D52084"/>
		<stop  offset="0.1708" style="stop-color:#D02084"/>
		<stop  offset="0.3748" style="stop-color:#C12284"/>
		<stop  offset="0.5957" style="stop-color:#A92484"/>
		<stop  offset="0.8271" style="stop-color:#882785"/>
		<stop  offset="1" style="stop-color:#6A2A85"/>
	</linearGradient>
	<path class="st1" d="M62.8,31.2c-0.5,0.6-0.9,1.5-1.4,1.6c-0.7,0.1-1.9-0.3-2.1-0.7c-1.4-3.4-2.7-6.9-3.8-10.4
		c-0.2-0.5,0.5-1.7,1.1-2c0.4-0.2,1.8,0.2,2,0.6C60,23.8,61.3,27.4,62.8,31.2z"/>
	<linearGradient id="SVGID_3_" gradientUnits="userSpaceOnUse" x1="44.8723" y1="26.211" x2="52.3107" y2="26.211">
		<stop  offset="0" style="stop-color:#D52084"/>
		<stop  offset="0.1708" style="stop-color:#D02084"/>
		<stop  offset="0.3748" style="stop-color:#C12284"/>
		<stop  offset="0.5957" style="stop-color:#A92484"/>
		<stop  offset="0.8271" style="stop-color:#882785"/>
		<stop  offset="1" style="stop-color:#6A2A85"/>
	</linearGradient>
	<path class="st2" d="M52.3,31.3c-0.5,0.6-0.9,1.5-1.5,1.6c-0.7,0.1-1.9-0.3-2.1-0.8c-1.4-3.4-2.7-6.9-3.8-10.4
		c-0.2-0.5,0.6-1.6,1.2-2c0.4-0.2,1.8,0.2,2,0.6C49.5,23.8,50.8,27.4,52.3,31.3z"/>
</g>
</svg>
