<?xml version="1.0" encoding="utf-8"?>
<!-- Generator: Adobe Illustrator 24.0.0, SVG Export Plug-In . SVG Version: 6.00 Build 0)  -->
<svg version="1.1" id="Capa_1" xmlns="http://www.w3.org/2000/svg" xmlns:xlink="http://www.w3.org/1999/xlink" x="0px" y="0px"
	 viewBox="0 0 50 50" style="enable-background:new 0 0 50 50;" xml:space="preserve">
<g>
	<path d="M49.9,25c0,1.1,0,2.4,0,3.5c0,2-1,3.5-2.8,4.4c-0.4,0.1-0.6,0.5-0.7,0.9c-3.5,7.9-9.5,12.8-18.1,14.1
		C17.6,49.5,7.8,43.7,3.6,34.1c-0.2-0.6-0.5-1-1.1-1.3c-1.6-0.8-2.5-2.1-2.5-4c0-2.5,0-5,0-7.6c0-1.9,1-3.3,2.6-4.1
		c0.4-0.3,0.7-0.6,1-1c3.6-7.9,9.6-12.6,18.1-14C32.1,0.5,42.3,6.4,46.4,16c0.3,0.5,0.6,0.9,1.1,1.1c1.6,0.9,2.5,2.3,2.5,4.1
		C49.9,22.5,49.9,23.7,49.9,25z M24.9,31.5c6.8,0,13.4,0,20.1,0c1.9,0,3-1.1,3-3c0-2.2,0-4.5,0-6.9c0-2-1.1-3.1-3.1-3.1
		c-13.4,0-26.7,0-40,0c-2,0-3.1,1.1-3.1,3.1c0,2.3,0,4.4,0,6.6c0,2.2,1,3.3,3.4,3.3C11.7,31.5,18.3,31.5,24.9,31.5z M29.1,16.6
		c-0.3-1.4-0.4-2.6-0.5-4c-0.5-2.6-1-5.2-2.2-7.5c-0.3-0.5-1-1.4-1.4-1.2c-0.5,0-1.1,0.8-1.5,1.4c-0.6,1.5-1.3,3-1.6,4.6
		c-0.5,2.3-0.9,4.5-1.3,6.9C23.5,16.6,26.2,16.6,29.1,16.6z M20.6,33.4c0.1,1,0.3,1.9,0.4,2.8c0.5,2.9,1,5.7,2.3,8.4
		c0.4,0.6,1.1,1.1,1.6,1.8c0.5-0.6,1.3-1,1.5-1.8c1.8-3.5,2.1-7.3,2.6-11.1C26.2,33.4,23.5,33.4,20.6,33.4z M11.9,16.6
		c1-4.2,2.8-8.2,5.8-11.6c-5.8,2.1-9.8,6-12.4,11.6C7.6,16.6,9.7,16.6,11.9,16.6z M44.5,16.6C41.9,11,37.9,7.1,32.1,5
		c3,3.2,4.6,7.3,5.8,11.6C40.1,16.6,42.1,16.6,44.5,16.6z M5.3,33.4c2.6,5.6,6.6,9.5,12.4,11.5c-3-3.2-4.6-7.2-5.8-11.5
		C9.7,33.4,7.6,33.4,5.3,33.4z M44.5,33.4c-2.3,0-4.5,0-6.6,0c-1.1,4.3-2.8,8.3-5.8,11.5C37.9,42.9,41.9,39,44.5,33.4z M18.8,16.6
		c0.5-4.1,1.1-8.1,2.6-12c-4.5,2.7-6.3,7.1-7.6,12C15.5,16.6,17.1,16.6,18.8,16.6z M28.1,4.6c1.8,3.9,2.3,8,2.8,12
		c1.6,0,3.3,0,4.9,0C34.9,11.4,31.5,6.1,28.1,4.6z M13.9,33.4c0.8,4.5,4.1,10.6,7.6,11.9c-1.6-3.9-2.2-7.9-2.8-11.9
		C17.1,33.4,15.5,33.4,13.9,33.4z M36,33.4c-1.8,0-3.4,0-5,0c-0.5,4.1-1.1,8.1-2.6,11.9C32.7,42.6,34.6,38.2,36,33.4z"/>
	<path d="M10.3,25.4c0.4-0.8,0.6-1.1,0.9-1.6c0.5-0.8,1.3-0.8,1.6,0c0.1,0.3,0.2,0.5,0.4,0.8c0.1,0.3,0.3,0.4,0.5,0.9
		c0.4-0.9,0.6-1.7,0.9-2.5c0.1-0.3,0.1-0.4,0.3-0.6c0.3-0.6,0.5-1,1.3-0.8c0.6,0.3,0.8,0.8,0.5,1.4c-0.5,1.5-1,2.9-1.5,4.4
		c-0.1,0.4-0.1,0.6-0.4,1c-0.3,0.3-0.5,0.6-0.9,0.6c-0.3,0-0.8-0.3-0.9-0.5c-0.4-0.5-0.6-1.1-1-1.9c-0.4,0.6-0.6,1.3-1,1.8
		c-0.3,0.3-0.6,0.6-1,0.6c-0.3,0-0.8-0.4-0.9-0.8c-0.6-1.8-1.1-3.4-1.7-5.1c-0.3-0.6-0.1-1.1,0.5-1.4c0.6-0.3,1,0.3,1.3,0.8
		C9.5,23.1,9.9,24.1,10.3,25.4z"/>
	<path d="M24.9,26.2c-0.4,0.8-0.6,1.4-1,1.9c-0.3,0.3-0.6,0.6-0.9,0.6c-0.4,0-0.8-0.4-0.9-0.8c-0.6-1.7-1.1-3.5-1.8-5.2
		c-0.3-0.6-0.1-1.1,0.5-1.3c0.6-0.3,1,0.1,1.3,0.8c0.4,1,0.6,2,1.1,3.3c0.4-0.6,0.5-1.1,0.8-1.5c0.3-0.3,0.6-0.6,0.9-0.6
		c0.3,0,0.6,0.4,0.9,0.6c0.3,0.4,0.5,0.9,0.8,1.5c0.4-1,0.6-1.9,1-2.8c0.1-0.3,0.1-0.6,0.4-0.9c0.3-0.3,0.9-0.4,1-0.3
		c0.3,0.3,0.6,0.8,0.5,1.1c-0.5,1.9-1.1,3.8-1.9,5.5c-0.1,0.3-0.5,0.6-0.8,0.6c-0.4,0-0.8-0.3-1-0.5C25.5,27.5,25.2,26.9,24.9,26.2z
		"/>
	<path d="M37.9,26.2c-0.4,0.8-0.6,1.4-1,1.9c-0.3,0.3-0.6,0.6-0.9,0.6c-0.4,0-0.8-0.4-0.9-0.8c-0.6-1.7-1.1-3.5-1.8-5.2
		c-0.3-0.6-0.1-1.1,0.5-1.3c0.6-0.3,1,0.1,1.3,0.6c0.4,1,0.6,2,1.1,3.3c0.3-0.5,0.4-1,0.6-1.3c0.3-0.4,0.8-0.9,1-0.9
		c0.4,0,0.7,0.5,1,0.9c0.3,0.3,0.4,0.6,0.6,1.3c0.4-1.3,0.7-2.2,1.1-3.3c0.1-0.4,0.5-0.6,0.8-0.8c0.3-0.1,0.6,0.1,0.9,0.4
		c0.1,0.3,0.1,0.6,0.1,1c-0.5,1.8-1.1,3.5-1.8,5.1c-0.1,0.4-0.5,0.8-0.9,0.8c-0.3,0-0.8-0.4-1-0.6C38.4,27.5,38.3,26.9,37.9,26.2z"
		/>
</g>
</svg>
