<?xml version="1.0" encoding="utf-8"?>
<!-- Generator: Adobe Illustrator 24.0.0, SVG Export Plug-In . SVG Version: 6.00 Build 0)  -->
<svg version="1.1" id="Capa_1" xmlns="http://www.w3.org/2000/svg" xmlns:xlink="http://www.w3.org/1999/xlink" x="0px" y="0px"
	 viewBox="0 0 50 50" style="enable-background:new 0 0 50 50;" xml:space="preserve">
<g>
	<path d="M10.5,24.9c0-6.1,0-12.3,0-18.4c0-2.2,0.8-4,2.7-5.1c0.9-0.5,2.1-0.8,3.2-0.8c5.7-0.1,11.4-0.1,17.2,0
		c3.5,0,5.9,2.4,5.9,5.9c0,12.4,0,24.7,0,37.1c0,3.5-2.4,5.9-5.9,5.9c-5.7,0-11.4,0-17.1,0c-3.6,0-5.9-2.4-5.9-6
		C10.5,37.3,10.5,31.1,10.5,24.9z M37.2,25c0-6.1,0-12.2,0-18.3c0-0.4,0-0.8,0-1.2C37,4.3,36,3.2,34.7,2.9c-1.7-0.4-2.4-0.1-3.3,1.2
		c-0.3,0.4-0.5,0.9-0.9,1.3c-0.4,0.3-0.9,0.7-1.3,0.7c-2.8,0.1-5.6,0.1-8.3,0c-0.5,0-1-0.4-1.4-0.7c-0.6-0.6-1-1.4-1.5-2.1
		c-0.1-0.2-0.3-0.4-0.5-0.4c-3-0.3-4.7,1-4.7,3.9c0,12.3,0,24.5,0,36.8c0,2.6,1.2,3.8,3.8,3.8c5.6,0,11.2,0,16.8,0
		c2.6,0,3.8-1.2,3.8-3.8C37.2,37.3,37.2,31.2,37.2,25z M29.4,2.9c-3,0-5.9,0-8.9,0c0.3,0.8,0.7,1,1.5,1c1.9-0.1,3.9-0.1,5.8,0
		C28.7,3.9,29.2,3.7,29.4,2.9z"/>
	<path d="M30.5,16.1c0.8,0,1.5,0,2.3,0c0.7,0,1.1,0.4,1.1,1c0,1.5,0,2.9,0,4.4c0,0.7-0.3,1.1-1,1.1c-1.5,0-3.1,0.1-4.6,0
		c-0.6,0-1-0.5-1-1.1c0-1.4,0-2.9,0-4.3c0-0.7,0.4-1.2,1.2-1.2C29.1,16.1,29.8,16.1,30.5,16.1C30.5,16.1,30.5,16.1,30.5,16.1z
		 M31.6,18.4c-0.7,0-1.4,0-2.1,0c0,0.7,0,1.4,0,2.1c0.7,0,1.4,0,2.1,0C31.6,19.8,31.6,19.1,31.6,18.4z"/>
	<path d="M19.5,27.2c0.7,0,1.3,0,2,0c0.8,0,1.3,0.4,1.3,1.2c0,1.3,0.1,2.6,0,3.9c0,1.2-0.3,1.5-1.6,1.5c-1.3,0-2.7,0-4,0
		c-0.7,0-1.1-0.4-1.1-1.1c0-1.4,0-2.9,0-4.3c0-0.8,0.4-1.2,1.3-1.2C18.1,27.2,18.8,27.2,19.5,27.2z M20.5,31.6c0-0.7,0-1.4,0-2.1
		c-0.7,0-1.4,0-2.1,0c0,0.7,0,1.4,0,2.1C19.1,31.6,19.7,31.6,20.5,31.6z"/>
	<path d="M16.1,19.4c0-0.7,0-1.4,0-2.1c0-0.7,0.4-1.1,1.1-1.2c1.5,0,2.9,0,4.4,0c0.6,0,1,0.4,1.1,1c0,1.6,0,3.1,0,4.7
		c0,0.6-0.3,0.9-0.9,1c-1.6,0-3.1,0.1-4.7,0c-0.6,0-1-0.5-1-1.1C16.1,20.9,16.1,20.1,16.1,19.4z M20.5,18.4c-0.7,0-1.4,0-2.1,0
		c0,0.7,0,1.4,0,2.1c0.7,0,1.4,0,2.1,0C20.5,19.8,20.5,19.1,20.5,18.4z"/>
	<path d="M28.3,26c0-0.3,0-0.7,0-1c0-0.7,0.4-1.1,1.1-1.1c0.6,0,1,0.4,1.1,1c0,0.7,0,1.5,0,2.2c0,0.3-0.1,0.7-0.3,0.7
		c-0.8,0.3-0.8,0.9-0.8,1.6c0,0.6-0.4,1-1.1,1c-0.7,0-1.1-0.4-1.1-1c-0.1-0.8-0.1-1.6,0-2.4c0.1-0.4,0.5-0.8,0.8-1.2
		C28.2,26,28.3,26,28.3,26z"/>
	<path d="M31.7,31.7c0-0.8,0-1.4,0-2.1c0-0.8,0.5-1.3,1.1-1.2c0.7,0.1,1.1,0.5,1.1,1.2c0,1,0,2.1,0,3.1c0,0.8-0.4,1.2-1.2,1.2
		c-0.7,0-1.4,0-2.1,0c-0.7,0-1.1-0.3-1.1-1.1c0-0.7,0.4-1.1,1.1-1.1C30.9,31.7,31.2,31.7,31.7,31.7z"/>
	<path d="M23.9,23.9c0-0.4,0-0.7,0-1c0.1-0.7,0.4-1.2,1.1-1.2c0.7,0,1.1,0.4,1.1,1.1c0,0.7,0,1.4,0,2.2c0,0.7-0.5,1.1-1.2,1.1
		c-0.7,0-1.3,0-2,0c-0.8,0-1.3-0.5-1.2-1.2c0.1-0.7,0.6-1,1.2-1.1C23.2,23.9,23.5,23.9,23.9,23.9z"/>
	<path d="M18.3,26.2c-0.4,0-0.9,0-1.3-0.1c-0.6-0.1-0.9-0.5-0.9-1c0-0.6,0.3-1,0.9-1.1c0.8-0.1,1.7-0.1,2.5,0c0.6,0,1,0.4,1,1.1
		c0,0.7-0.4,1-1,1.1C19.1,26.2,18.7,26.1,18.3,26.2C18.3,26.1,18.3,26.1,18.3,26.2z"/>
	<path d="M25,46.2c-0.5,0-0.9,0-1.3-0.1c-0.6-0.1-0.9-0.5-0.8-1.1c0.1-0.4,0.5-0.9,0.8-1c0.9-0.1,1.9-0.1,2.8,0c0.3,0,0.7,0.6,0.7,1
		c0,0.3-0.4,0.8-0.7,1C26,46.2,25.4,46.2,25,46.2z"/>
	<path d="M26.2,18.4c0,0.4,0,0.8-0.1,1.2c-0.1,0.6-0.5,0.9-1.1,0.9c-0.6,0-1-0.3-1-0.9c-0.1-0.9-0.1-1.8,0-2.6c0-0.6,0.5-0.9,1-0.9
		c0.6,0,1,0.3,1.1,0.9C26.2,17.5,26.1,17.9,26.2,18.4z"/>
	<path d="M26.1,33.9c-0.4,0-0.8,0-1.2,0c-0.6,0-1-0.5-1-1c0-0.6,0.3-1,0.9-1.1c0.9-0.1,1.7-0.1,2.6,0c0.6,0,0.9,0.5,0.9,1.1
		c0,0.6-0.3,1-1,1C26.9,33.9,26.5,33.9,26.1,33.9z"/>
	<path d="M23.9,28.5c0-0.3,0-1,0.8-1.2c0.4-0.1,0.9,0.1,1.2,0.4c0.5,0.4,0.4,2.1-0.1,2.4c-0.3,0.2-0.9,0.4-1.3,0.3
		C23.8,30.2,23.9,29.5,23.9,28.5z"/>
	<path d="M33.9,25.6c0,0.3,0,0.5,0,0.7c-0.1,0.8-1,1.3-1.6,0.8c-0.3-0.3-0.5-0.9-0.6-1.4c-0.1-0.6-0.1-1.2,0.5-1.5
		c0.7-0.4,1.5,0,1.6,0.7C33.9,25,33.9,25.3,33.9,25.6z"/>
</g>
</svg>
