<?xml version="1.0" encoding="utf-8"?>
<!-- Generator: Adobe Illustrator 24.0.0, SVG Export Plug-In . SVG Version: 6.00 Build 0)  -->
<svg version="1.1" id="Capa_1" xmlns="http://www.w3.org/2000/svg" xmlns:xlink="http://www.w3.org/1999/xlink" x="0px" y="0px"
	 viewBox="0 0 50 50" style="enable-background:new 0 0 50 50;" xml:space="preserve">
<g>
	<path d="M25,45c-2.7,0-5.4-0.1-8.1-0.2c-2.3-0.1-4.5-0.5-6.5-1.6c-2.7-1.6-4.4-4-4.9-7.1c-0.3-1.8-0.4-3.7-0.4-5.5
		c-0.1-4,0-7.9,0-11.9c0-2,0.1-4.1,0.7-6.1C7,8.8,9.6,6.5,13.5,5.5c2-0.5,4-0.5,6-0.5c4,0,7.9,0,11.9,0c2.1,0,4.2,0.1,6.3,0.8
		c3.9,1.3,6.2,4.1,6.9,8c0.3,1.8,0.4,3.7,0.5,5.5c0.1,4,0,7.9,0,11.9c0,2-0.1,4.1-0.7,6.1c-1.3,3.8-3.8,6.1-7.7,7.1
		c-2,0.5-4,0.5-6,0.5C28.7,45,26.9,45,25,45C25,45,25,45,25,45z M41.5,25C41.4,25,41.4,25,41.5,25c-0.1-1.7,0-3.4-0.1-5.1
		c-0.1-1.7-0.1-3.4-0.4-5.1c-0.4-2.4-1.6-4.2-3.9-5.3c-1.2-0.6-2.6-0.8-3.9-0.8c-3.6-0.1-7.3-0.1-10.9-0.1c-2.3,0-4.6,0.1-6.9,0.3
		c-3.3,0.3-5.7,2.4-6.3,5.7c-0.3,1.4-0.4,3-0.4,4.4c-0.1,2.8-0.1,5.5,0,8.3c0,2.4,0.1,4.9,0.3,7.3c0.3,3.3,2.4,5.6,5.6,6.3
		c1.8,0.4,3.7,0.4,5.6,0.4c3.3,0,6.6,0,9.9,0c1.6,0,3.1-0.1,4.7-0.3c1.4-0.1,2.7-0.6,3.9-1.5c1.9-1.5,2.6-3.5,2.7-5.8
		C41.3,30.9,41.4,27.9,41.5,25z"/>
	<path d="M25,35.2c-5.6,0-10.2-4.6-10.3-10.1c-0.1-5.8,4.6-10.5,10.3-10.5c5.6,0,10.2,4.6,10.3,10.1C35.4,30.5,30.7,35.3,25,35.2z
		 M25,31.6c3.7,0,6.7-3,6.7-6.7c0-3.7-3-6.7-6.7-6.7c-3.7,0-6.7,3-6.7,6.7C18.3,28.6,21.3,31.6,25,31.6z"/>
	<path d="M38.1,14.3c0,1.3-1.1,2.4-2.4,2.4c-1.3,0-2.4-1.1-2.4-2.4c0-1.3,1.1-2.4,2.4-2.4C37,11.9,38.1,13,38.1,14.3z"/>
</g>
</svg>
