<?xml version="1.0" encoding="utf-8"?>
<!-- Generator: Adobe Illustrator 24.0.0, SVG Export Plug-In . SVG Version: 6.00 Build 0)  -->
<svg version="1.1" id="Capa_1" xmlns="http://www.w3.org/2000/svg" xmlns:xlink="http://www.w3.org/1999/xlink" x="0px" y="0px"
	 viewBox="0 0 100 100" style="enable-background:new 0 0 100 100;" xml:space="preserve">
<g>
	<path d="M90,49c0,21.5-17.6,39-39.3,39c-6.9,0-13.4-1.8-19-4.8L10,90l7.1-20.9c-3.6-5.9-5.6-12.8-5.6-20.1c0-21.5,17.6-39,39.3-39
		C72.4,10,90,27.4,90,49z M50.7,16.2c-18.2,0-33,14.7-33,32.8c0,7.2,2.3,13.8,6.3,19.2l-4.1,12.2l12.7-4c5.2,3.4,11.5,5.4,18.2,5.4
		c18.2,0,33-14.7,33-32.8C83.7,30.9,68.9,16.2,50.7,16.2z M70.6,57.9c-0.2-0.4-0.9-0.6-1.8-1.1c-1-0.5-5.7-2.8-6.6-3.1
		c-0.9-0.3-1.5-0.5-2.2,0.5c-0.6,1-2.5,3.1-3,3.7c-0.6,0.6-1.1,0.7-2.1,0.2c-1-0.5-4.1-1.5-7.7-4.7c-2.9-2.5-4.8-5.7-5.4-6.6
		c-0.6-1-0.1-1.5,0.4-1.9c0.4-0.4,1-1.1,1.4-1.7c0.5-0.6,0.6-0.9,1-1.6c0.3-0.6,0.2-1.2-0.1-1.7c-0.2-0.5-2.2-5.2-3-7.1
		c-0.8-1.9-1.6-1.6-2.2-1.6c-0.6,0-1.2-0.1-1.8-0.1s-1.7,0.2-2.6,1.2c-0.9,1-3.4,3.3-3.4,8c0,4.7,3.4,9.2,3.9,9.9
		c0.5,0.6,6.7,10.6,16.4,14.4c9.8,3.8,9.8,2.5,11.6,2.4c1.8-0.2,5.7-2.3,6.5-4.5C70.8,60.3,70.8,58.3,70.6,57.9z"/>
</g>
</svg>
