<?xml version="1.0" encoding="utf-8"?>
<!-- Generator: Adobe Illustrator 24.0.0, SVG Export Plug-In . SVG Version: 6.00 Build 0)  -->
<svg version="1.1" id="Capa_1" xmlns="http://www.w3.org/2000/svg" xmlns:xlink="http://www.w3.org/1999/xlink" x="0px" y="0px"
	 viewBox="0 0 100 100" style="enable-background:new 0 0 100 100;" xml:space="preserve">
<g>
	<path d="M50.9,10c0.4,0,0.8,0.1,1.2,0.1c2.3,0.2,4.6,0.7,6.8,1.5c2.3,0.9,4.5,2,6.4,3.5c1.4,1.1,2.7,2.3,3.8,3.7
		c1.5,1.8,2.7,3.8,3.7,6c0.8,1.8,1.3,3.6,1.6,5.5c0.2,1.4,0.3,2.8,0.3,4.2c0,3.1-0.6,6.1-1.9,8.9c-1.7,3.5-3.5,7-5.6,10.3
		c-1.5,2.2-2.9,4.5-4.4,6.7c-1.9,3-3.7,6-5.4,9.2c-1.9,3.6-3.5,7.3-4.9,11.1c-1,2.9-1.8,5.9-2.4,9c0,0.1,0,0.1-0.1,0.2
		c-0.2-0.8-0.3-1.5-0.5-2.2c-1-4.2-2.4-8.3-4.1-12.3c-1.5-3.5-3.2-6.8-5.1-10c-1.8-2.9-3.6-5.8-5.5-8.7c-1.4-2.3-2.9-4.5-4.2-6.8
		c-1.2-2-2.3-4.1-3.3-6.2c-0.9-1.8-1.5-3.7-1.8-5.7c-0.2-1.6-0.3-3.2-0.3-4.9c0.1-2.5,0.6-5,1.5-7.4c0.9-2.5,2.3-4.7,4-6.8
		c1-1.3,2.2-2.4,3.4-3.4c3.1-2.5,6.6-4.1,10.4-5c1.3-0.3,2.7-0.4,4.1-0.5c0.1,0,0.2,0,0.3-0.1C49.7,10,50.3,10,50.9,10z M50,42.6
		c4.8,0,8.7-3.9,8.7-8.6c0-4.8-3.9-8.7-8.7-8.7s-8.7,3.9-8.7,8.7C41.3,38.7,45.2,42.6,50,42.6z"/>
</g>
</svg>
