<?xml version="1.0" encoding="utf-8"?>
<!-- Generator: Adobe Illustrator 24.0.0, SVG Export Plug-In . SVG Version: 6.00 Build 0)  -->
<svg version="1.1" id="Capa_1" xmlns="http://www.w3.org/2000/svg" xmlns:xlink="http://www.w3.org/1999/xlink" x="0px" y="0px"
	 viewBox="0 0 50 50" style="enable-background:new 0 0 50 50;" xml:space="preserve">
<style type="text/css">
	.st0{fill-rule:evenodd;clip-rule:evenodd;fill:url(#SVGID_1_);}
</style>
<g id="logo_4_">
	<g id="logo_6_">
		
			<linearGradient id="SVGID_1_" gradientUnits="userSpaceOnUse" x1="298.7269" y1="-289.3623" x2="315.6601" y2="-299.1387" gradientTransform="matrix(1 0 0 -1 -281 -271)">
			<stop  offset="0" style="stop-color:#D42685"/>
			<stop  offset="0.1708" style="stop-color:#CF2585"/>
			<stop  offset="0.3748" style="stop-color:#C22585"/>
			<stop  offset="0.5957" style="stop-color:#A82885"/>
			<stop  offset="0.8271" style="stop-color:#892986"/>
			<stop  offset="1" style="stop-color:#6A2B85"/>
		</linearGradient>
		<path class="st0" d="M13.1,37.8c0.3-0.5-0.6-2.8,1.4-5.9l1.6-2.2c0.6-0.8,2.4-2.6,3.3-3.4l1.4-1.3c0.3-0.3,0.6-0.7,1.1-0.9
			c1.9-0.8,6.2-0.4,6.2-1.4c-0.4-1.1-4,0.2-4.9,0.4c0.3-0.5,2.4-2.4,3-3c1.3-1.3,3.4-3.8,4.3-5.7c0.9-1.8,1.5-4.2,1.1-6.5
			c-0.3-1.4-1.9-4.9-2.7-5.3c0.4,2.9,0.4,3.3-0.8,5.8c-0.8,1.6-2,3.1-3,4.2c-0.3,0.3-0.6,0.6-0.9,0.9l-8.4,7.7
			c-2,2.1-3.2,3.3-4.7,6.1c-1.4,2.7-1.1,5.8,0.5,8.5c0.3,0.4,1.1,1.6,1.4,1.9C13.1,37.8,12.9,37.7,13.1,37.8L13.1,37.8z M20.1,41.5
			c0.7,0.2,1.1,0.9,3.7,1.3c2.7,0.5,5.6-0.4,8-1.6c3.7-2.1,2.2-2.7,2.8-4.6c1.1-3.4,4-4.7,5.1-7.2c0.9-2,0.4-2.9,0.4-4.2
			c0.3,0.1,0.4,0.2,0.5,0.4c0.2,0.3,0.2,0.2,0.4,0.4c0.1,0.2,0.3,0.4,0.4,0.4c0.2,0.2,0.3,0.3,0.4,0.4c1.6,2.1,2.4,5,1.9,7.7
			c-0.5,2.7-2.7,5.2-5.1,6.5c-0.4,0.2-0.9,0.3-1.1,0.6c0.1,0.3,0.4,0.3,0.9,0.4c2.1,0.7,3.8,3.1,3.7,5.4c-0.4-0.1-0.8-0.4-1.1-0.4
			c-0.9-0.2-2.8-0.1-4.2-0.4c-2.7-0.4-3.4-2.6-3-2.9c0.6-0.4,2.2,0,2.9,0.1c0.5,0.1,0.9,0.3,1.3,0.4c0.4,0.2,0.9,0.4,1.2,0.4
			c-0.4-0.9-2.7-1.6-3.4-1.8c-0.3-0.1-0.5-0.1-0.8-0.1c-0.4,0-0.4,0-0.7-0.2c0.9-1.1,3.5-1.6,5.9-6.3c0.4-0.8,0.9-2.2,0.9-3.2
			c-0.2,0.1-0.1,0-0.2,0.2l-0.3,0.5c-0.4,0.9-0.6,1.2-1.1,2c-1.4,2-3.4,3.9-5.4,5.2c-2.1,1.4-5,2.7-7.8,2.8c-1.1,0-2.7-0.2-3.6-0.6
			c-0.7-0.4-1.7-0.9-2.2-1.5C20.1,41.7,20.1,41.8,20.1,41.5L20.1,41.5z M8.7,33.8c-0.9-0.4-2-3.4-2.3-4.7c-0.5-2.8,0.4-5.8,1.9-8
			l2.4-2.8c0.1-0.2,0.3-0.4,0.4-0.4l2.2-1.9c1.1-1,6.2-5,7.7-6.1L23,8.2c0.6-0.5,1.2-1.1,1.9-1.6c2.5-2.3,2.5-3.5,2.9-3.9
			c0.8,1-1.2,4-1.7,4.6c-1.6,2.1-1.1,1.3-3,3.4c-1.3,1.4-2.8,2.7-4.2,3.9l-0.8,0.8c-0.7,0.7-0.8,0.6-1.7,1.5
			c-0.7,0.7-3.5,3.4-4.1,4.1l-2.1,2.7c-0.8,1.1-1.7,2.8-2,4.4C7.6,31.5,8.5,32.3,8.7,33.8L8.7,33.8z M19.1,27.5
			c1.3-0.1,2.9,0.4,4.4,0c2.2-0.6,1.3-2.2,2.4-2.2l-0.2,0.5c0.3,0.1,0.4,0.1,0.5,0.4c0.3,0.6,0.4,0.9,0.1,1.2
			c-0.2,0.4-0.1,0.3,0,0.6L25.5,28c0.1,0.4,0.3,0.3,0.3,0.8l-0.7-0.3l0.2,0.6c-0.4-0.1-0.4-0.3-0.8-0.4l0.1,0.7
			c-0.5-0.1-0.4-0.3-0.7-0.4l0.1,0.7c-0.2,0-0.5-0.3-0.7-0.4l-0.1,0.3c-0.1,0.1,0,0-0.1,0.2c-0.3-0.2-0.2-0.2-0.4-0.3
			c0.1,0.4,0.2,0.4,0.3,0.6c-0.4-0.1-0.3-0.4-0.9-0.5L21.8,30c-0.3-0.3-0.3-0.4-0.7-0.6c-1.4-0.7-0.7-0.4-1.3-1.1
			C19.4,27.9,19.2,27.9,19.1,27.5L19.1,27.5z M27.3,35.8c0.4-0.3,1-0.5,1.3-0.8c0.5-0.4,0.5-0.5,1-1.1c1.3-1.5,1.1-0.8,1.9-1.2
			c0.3-0.2,0.3-0.3,0.7-0.4c-0.1,0.5-0.4,1.6-0.5,2C30.6,37.6,27.6,36.8,27.3,35.8L27.3,35.8z M31.4,21.7c0-0.6,0.2-0.6,0.4-1.1
			c0.4-1.2-0.3-2,0.8-1.5c0.4,0.2,0.8,0.2,1.2,0.2c-0.2,0.3-0.2,0.3-0.3,0.4c0.2,0.2,0.1,0.1,0.2,0.3c-0.4,0.3-0.3,0.2-0.4,0.7
			C33.1,21.8,32.5,21.7,31.4,21.7z"/>
	</g>
</g>
</svg>
